<?xml version="1.0" standalone="no"?>
<!DOCTYPE svg PUBLIC "-//W3C//DTD SVG 20010904//EN"
 "http://www.w3.org/TR/2001/REC-SVG-20010904/DTD/svg10.dtd">
<svg version="1.0" xmlns="http://www.w3.org/2000/svg"
 width="700.000000pt" height="700.000000pt" viewBox="0 0 700.000000 700.000000"
 preserveAspectRatio="xMidYMid meet">
<metadata>
Created by potrace 1.11, written by Peter Selinger 2001-2013
</metadata>
<g transform="translate(0.000000,700.000000) scale(0.100000,-0.100000)"
fill="#000000" stroke="none">
<path d="M1540 5250 c0 -5 -5 -10 -11 -10 -14 0 -39 -25 -39 -39 0 -6 -4 -11
-10 -11 -14 0 -210 -183 -210 -196 0 -8 -27 -34 -35 -34 -4 0 -13 -6 -21 -14
-12 -13 -14 -240 -14 -1605 l0 -1591 755 0 c497 0 755 3 755 10 0 6 5 10 10
10 6 0 32 21 59 47 27 27 72 68 100 93 28 25 51 51 51 58 0 6 5 12 10 12 6 0
33 22 60 49 l50 50 0 380 0 381 -325 0 -325 0 0 1210 0 1210 -430 0 c-280 0
-430 -3 -430 -10z"/>
<path d="M3610 5251 c0 -6 -5 -11 -11 -11 -14 0 -39 -25 -39 -39 0 -6 -4 -11
-10 -11 -18 0 -230 -202 -230 -219 0 -6 -5 -11 -11 -11 -40 0 -39 49 -39
-1619 l0 -1591 663 0 c729 0 771 3 931 61 142 52 206 94 376 248 362 329 447
442 513 681 30 110 29 371 -1 483 -53 192 -148 311 -317 393 l-97 47 133 131
c149 146 184 200 221 333 31 112 31 353 -1 468 -81 303 -290 513 -596 604
-176 52 -219 54 -872 58 -429 3 -613 1 -613 -6z m904 -1203 c6 -25 4 -28 -19
-28 -24 0 -25 2 -24 68 l1 67 18 -40 c9 -22 20 -52 24 -67z m10 -1162 c13 -28
26 -68 29 -88 l6 -38 -45 0 -44 0 0 101 c0 115 9 120 54 25z"/>
</g>
</svg>
