<svg id="Layer_1" data-name="Layer 1" xmlns="http://www.w3.org/2000/svg" viewBox="0 0 152 35"><defs><style>.cls-2{fill:#fc0f37;}</style></defs><title>cabana-web</title><path d="M108.06,20.7V33h-4.28V22.11c0-3.28-1.69-5.12-4.55-5.12a4.84,4.84,0,0,0-5.05,5.16V33H89.89V13.45h4.24v2.38a6.93,6.93,0,0,1,6-2.89A7.52,7.52,0,0,1,108.06,20.7Z"/><path class="cls-1" d="M41.33,13.45H37.07v2.36a7.42,7.42,0,0,0-6.14-2.87c-5.46,0-9.76,4.3-9.76,10.27s4.3,10.27,9.76,10.27a7.41,7.41,0,0,0,6.14-2.85h0v0A2.33,2.33,0,0,0,39.4,33h1.93Zm-9.89,16c-3.67,0-5.89-2.83-5.89-6.26S27.78,17,31.45,17s5.89,2.69,5.89,6.26S35,29.47,31.45,29.47Z"/><path class="cls-1" d="M87,13.45H82.73v2.36a7.42,7.42,0,0,0-6.14-2.87c-5.46,0-9.76,4.3-9.76,10.27s4.3,10.27,9.76,10.27a7.41,7.41,0,0,0,6.14-2.85h0v0A2.33,2.33,0,0,0,85.06,33H87Zm-9.89,16c-3.67,0-5.89-2.83-5.89-6.26S73.44,17,77.11,17,83,19.64,83,23.21,80.63,29.47,77.11,29.47Z"/><path class="cls-1" d="M130.18,13.45h-4.26v2.36a7.42,7.42,0,0,0-6.14-2.87c-5.46,0-9.76,4.3-9.76,10.27s4.3,10.27,9.76,10.27a7.41,7.41,0,0,0,6.14-2.85h0v0A2.33,2.33,0,0,0,128.25,33h1.93Zm-9.89,16c-3.67,0-5.89-2.83-5.89-6.26S116.63,17,120.3,17s5.89,2.69,5.89,6.26S123.82,29.47,120.3,29.47Z"/><path class="cls-1" d="M54.84,12.94a7.41,7.41,0,0,0-6.11,2.83V5.28H44.47V33h1.94a2.33,2.33,0,0,0,2.33-2.32,7.41,7.41,0,0,0,6.11,2.82c5.46,0,9.76-4.3,9.76-10.27S60.31,12.94,54.84,12.94Zm-.51,16.53c-3.53,0-5.89-2.69-5.89-6.26S50.81,17,54.33,17s5.89,2.83,5.89,6.26S58,29.47,54.33,29.47Z"/><path class="cls-1" d="M19.43,17.63l-2.94,1.8a5.93,5.93,0,0,0-5.12-2.73,6.13,6.13,0,0,0-6.25,6.48,6.12,6.12,0,0,0,6.25,6.48,6.06,6.06,0,0,0,5.16-2.72l2.79,2a.53.53,0,0,1,.12.75,9.92,9.92,0,0,1-8,3.75C5.3,33.45,1,29.13,1,23.17S5.3,12.9,11.4,12.9a9.76,9.76,0,0,1,8.19,4A.54.54,0,0,1,19.43,17.63Z"/><path class="cls-1" d="M144.76,10.36a3.67,3.67,0,1,1,0-5.19l.24.24,1.83-1.83-.24-.24A6.25,6.25,0,0,0,138,3.11h0l-.24.24-.24.24h0a6.25,6.25,0,0,0,0,8.34h0l.24.24.24.24h0a6.25,6.25,0,0,0,8.59-.23l.24-.24L145,10.12Z"/><path class="cls-2" d="M148.64,1.77,146.81,3.6a6.24,6.24,0,0,1,0,8.34l1.83,1.83a8.83,8.83,0,0,0,0-12Z"/></svg>