<svg viewBox="0 0 5594 2094" xmlns="http://www.w3.org/2000/svg">
<path fill-rule="evenodd" clip-rule="evenodd" d="M8.95405 10.6327C8.10377 12.8365 7.79141 328.554 8.24258 712.243L9.05817 1409.84L132.228 1410.68L255.414 1411.51L289.2 1378.87C635.23 1044.57 801.972 887.021 807.49 889.138C810.926 890.456 924.447 985.064 1009.48 1057.48C1024.29 1070.11 1104.92 1138.06 1188.62 1208.5C1272.33 1278.93 1360.73 1353.41 1385.06 1373.99L1429.29 1411.42H1610.99C1710.92 1411.42 1792.67 1410.21 1792.67 1408.73C1792.67 1405.4 1780.52 1394.92 1659.63 1293.93C1094.85 822.121 984.106 728.554 984.106 723.21C984.106 718.16 1029.93 673.043 1209.24 501.597C1246.74 465.728 1294.53 419.813 1315.46 399.562C1336.38 379.294 1369.93 347.035 1389.97 327.895C1573.51 152.648 1715.17 15.0924 1716.02 11.3094C1716.91 7.33564 1694.37 6.71094 1551.54 6.71094H1386.03L1358.66 32.827C1343.62 47.1951 1314.19 75.3935 1293.26 95.4881C1272.33 115.6 1240.94 145.464 1223.5 161.88C1206.06 178.278 1172.54 210.364 1148.99 233.183C1125.44 256.002 1079.79 299.731 1047.51 330.359C982.284 392.291 834.63 533.526 280.923 1063.67C263.015 1080.82 246.616 1094.25 244.447 1093.54C241.359 1092.5 240.196 976.891 238.947 550.254L237.35 8.29005L123.916 7.4571C34.8616 6.81505 10.1514 7.49179 8.95405 10.6327ZM2426.86 10.1468C2101.97 39.4037 1929.31 179.337 1875.53 456.982C1844.45 617.461 1851.06 877.424 1889.9 1021.4C1947.6 1235.33 2105.94 1363.17 2357.1 1398.58C2370.17 1400.44 2391.58 1403.61 2404.67 1405.64C2421.83 1408.3 2580.76 1409.67 2975.8 1410.56L3523.15 1411.79L3525.11 1404.46C3527.65 1394.99 3527.77 1188.39 3525.23 1181.79C3523.48 1177.25 3475.6 1176.78 3015.17 1176.78C2440.34 1176.78 2423.82 1176.22 2331.99 1154.08C2204.03 1123.19 2139.29 1059.87 2109.72 936.632C2105.87 920.529 2103.54 905.189 2104.55 902.551C2106.18 898.282 2163.19 897.745 2613.05 897.71C3188.78 897.675 3197.18 897.363 3293.45 872.531C3502.48 818.65 3601.01 657.703 3581.28 402.408C3562.56 160.231 3458.13 52.748 3203.72 13.8256C3166 8.04711 2485.88 4.8368 2426.86 10.1468ZM3963.06 10.5806C3962.19 12.8365 3961.86 65.3288 3962.31 127.226L3963.15 239.777L4478.42 241.582C4855.82 242.9 5002.17 244.427 5025.39 247.273C5207.87 269.624 5299.06 328.051 5339.32 448.41C5346.45 469.719 5350.41 487.09 5349.8 494.395L5348.83 506.126L4814.54 507.93C4341.43 509.544 4276.38 510.342 4246.53 514.941C3992.12 554.141 3884.68 665.182 3866.21 908.052C3844.85 1188.86 3964.53 1356.21 4216.82 1398.3C4287.07 1410.02 4275.96 1409.84 4939.79 1409.84H5586.65L5586.63 962.748V515.652L5579.5 473.138C5532.66 193.913 5386.95 61.8235 5072.95 14.0164C5026.02 6.86708 3965.73 3.58743 3963.06 10.5806ZM3177.69 244.028C3309.19 268.895 3341.92 310.837 3341.4 453.807C3341.07 541.578 3332.17 572.952 3298.73 604.239C3269.35 631.726 3238.25 643.092 3157.74 655.846C3118.82 662.006 2114.95 666.119 2099.33 660.167C2087.09 655.516 2088.67 595.614 2103.28 509.301C2132.84 334.801 2241.24 253.087 2462.88 238.285C2556.4 232.055 3139.05 236.723 3177.69 244.028ZM5355.18 959.573V1172.02H4825.63C4331.4 1172.02 4294.04 1171.64 4265.46 1166.38C4133.64 1142.07 4106.41 1107.21 4106.36 962.748C4106.31 819.015 4142.47 773.984 4274.37 753.629C4320.77 746.463 4302.63 746.688 4847.84 746.914L5355.18 747.122V959.573ZM377.664 1770.02C372.614 1778.89 371.209 1779.53 361.821 1777.13C323.819 1767.43 270.459 1776.46 252.603 1795.6C216.631 1834.16 212.05 1981.93 245.003 2040.67C253.453 2055.75 253.731 2057.35 249.497 2067.33C241.549 2086.12 256.75 2095 266.069 2076.99C270.546 2068.33 272.35 2067.38 281.2 2068.97C344.434 2080.43 388.301 2066.98 405.428 2030.89C428.247 1982.78 425.141 1845.31 400.344 1806.22C391.754 1792.68 391.199 1790.27 394.461 1780.38C401.229 1759.89 388.058 1751.76 377.664 1770.02ZM2086.52 1778.05C2053.78 1788.12 2036.84 1815.61 2036.84 1858.69C2036.84 1901.94 2051.3 1918.84 2108.63 1942.52C2161.26 1964.27 2172.92 1977.92 2164.09 2007.41C2151.65 2048.93 2094.43 2040.24 2088.08 1995.87L2085.91 1980.61H2059H2032.09L2031.08 1989.26C2025.15 2040.76 2069.64 2077.43 2133.13 2073.33C2192.23 2069.53 2219.62 2045.86 2223 1995.68C2226.4 1945.16 2214.38 1929.35 2151.4 1901.52C2095.49 1876.81 2082.86 1861.35 2094.94 1832.42C2107.59 1802.16 2153.21 1806.34 2159.19 1838.3C2162.02 1853.4 2166.66 1855.78 2191.12 1854.72L2212.81 1853.76L2213.79 1842.09C2218 1791.43 2151.65 1758.05 2086.52 1778.05ZM3925.75 1778.02C3895.26 1787.39 3875.95 1817.91 3875.95 1856.75C3875.95 1900.84 3894.88 1922.34 3952.77 1944.07C3993.69 1959.41 4004.38 1969.86 4004.38 1994.44C4004.38 2046.1 3938.61 2049.38 3928.39 1998.23L3924.87 1980.61L3899.2 1979.69C3868.97 1978.62 3868.45 1979.17 3873.07 2007.84C3880.11 2051.6 3902.46 2069.37 3955.22 2073.21C4023.19 2078.14 4063.13 2046.24 4062.96 1987.17C4062.84 1940.37 4052.27 1928.23 3986.73 1899.52C3934.36 1876.6 3921.72 1857.88 3937.72 1826.92C3950.89 1801.48 3999.62 1812.5 3999.62 1840.94C3999.62 1852.64 4006.53 1855.74 4030.25 1854.72L4051.94 1853.76L4052.95 1841.34C4057.13 1790.36 3991.66 1757.77 3925.75 1778.02ZM8.97139 1779.91C8.10376 1782.17 7.77407 1847.5 8.22524 1925.12L9.05817 2066.22H34.4278H59.78L61.3765 2023.42C62.8862 1982.63 63.3894 1979.97 72.1872 1966.99C85.3926 1947.52 87.527 1949.45 118.172 2008.6C133.39 2037.95 147.88 2063.27 150.378 2064.84C156.625 2068.8 203.217 2068.56 205.699 2064.57C207.573 2061.53 172.642 1991.77 142.223 1937.8C121.018 1900.15 119.664 1906.95 161.172 1842.12C203.443 1776.09 203.443 1776.08 171.479 1776.08C141.824 1776.08 143.628 1774.5 104.88 1834.75C63.1118 1899.7 63.3721 1899.71 61.3765 1831.57L59.78 1777.67L35.1566 1776.74C17.266 1776.08 10.1167 1776.93 8.97139 1779.91ZM464.861 1778.18C461.772 1779.43 460.905 1811.22 460.905 1922.15V2064.51L468.679 2066.46C488.53 2071.46 592.108 2066.25 606.771 2059.55C635.508 2046.38 649.216 2021.91 649.199 1983.77C649.181 1952.97 631.603 1921.94 614.164 1921.94C603.978 1921.94 606.216 1911.93 618.797 1901.16C649.407 1874.95 648.869 1816.96 617.79 1793.26C599.917 1779.62 488.53 1768.63 464.861 1778.18ZM693.83 1780.05C692.997 1782.22 692.685 1847.5 693.136 1925.12L693.969 2066.22H774.815H855.678V2045.62V2025L803.499 2024.12C742.261 2023.09 746.391 2026.06 746.339 1983.25C746.27 1937.63 742.504 1940.96 793.92 1940.96C849.779 1940.96 847.748 1941.88 847.748 1916.91C847.748 1892.5 850.542 1893.68 790.675 1892.6L747.866 1891.82L746.929 1864.87C745.385 1820.41 741.342 1823.64 798.744 1823.64H847.904L851.011 1815.52C855.279 1804.27 854.88 1784.47 850.282 1779.89C844.729 1774.32 695.964 1774.48 693.83 1780.05ZM896.11 1778.18C889.412 1780.88 890.436 2063.3 897.169 2065.89C905.949 2069.25 935.136 2067.95 939.075 2063.99C941.852 2061.22 942.876 2035.67 942.876 1968.88C942.876 1893.38 943.639 1877.56 947.249 1877.56C952.437 1877.56 950.754 1873.41 987.594 1977.44C1023.05 2077.56 1016.17 2068.23 1053.55 2067.12L1083.99 2066.22L1084.8 1923.73C1085.74 1763.3 1088.05 1776.21 1058.46 1776.13C1030.37 1776.06 1031.67 1771.44 1031.67 1871.85C1031.67 1944.19 1030.89 1960 1027.33 1960C1022.58 1960 1022.59 1960.03 990.439 1869.62C960.87 1786.47 958.805 1781.28 954.485 1778.52C950.407 1775.94 902.375 1775.66 896.11 1778.18ZM1133.89 1779.77C1127.72 1785.93 1128.24 2059.26 1134.43 2064.39C1137.17 2066.67 1147.32 2067.74 1160.6 2067.17L1182.27 2066.22L1183.87 2005.97C1184.74 1972.84 1186.61 1943.95 1188.02 1941.76C1190.2 1938.39 1254.95 1935.44 1257.43 1938.59C1257.76 1939.04 1258.83 1967.93 1259.81 2002.81L1261.56 2066.22L1284.83 2067.15C1319.9 2068.58 1317.05 2081.42 1317.05 1921.94C1317.05 1762.47 1319.9 1775.31 1284.83 1776.74L1261.56 1777.67L1260.67 1829.77C1259.61 1893.19 1261.52 1890.24 1221.72 1890.24C1183.28 1890.24 1185.81 1894.27 1183.87 1829.99L1182.27 1777.67L1160.04 1776.75C1145.49 1776.15 1136.46 1777.19 1133.89 1779.77ZM1421.22 1780.05C1418.46 1782.31 1407.74 1816.86 1396.37 1860.12C1385.37 1901.97 1368.68 1964.63 1359.27 1999.37C1339.82 2071.21 1339.19 2067.69 1371.52 2067.76C1395.92 2067.81 1401.37 2064.25 1404.39 2046.29C1411.21 2005.67 1412.72 2004.39 1453.55 2004.39C1494.71 2004.39 1495.11 2004.66 1502.57 2038.36C1509.09 2067.78 1508.99 2067.69 1538.32 2067.76C1567 2067.81 1567.05 2067.73 1556.43 2027.78C1545.22 1985.61 1537.15 1955.38 1529.22 1925.92C1525.6 1912.4 1515.76 1875.25 1507.36 1843.39C1498.96 1811.51 1490.34 1783.33 1488.2 1780.76C1483.15 1774.65 1428.51 1774.08 1421.22 1780.05ZM1574.34 1778.9C1570.78 1781.16 1571.16 1786.18 1576.54 1808.18C1580.12 1822.79 1588.93 1860.43 1596.12 1891.82C1603.3 1923.21 1611.87 1960.31 1615.17 1974.26C1618.47 1988.21 1624.14 2013.13 1627.8 2029.62C1636.55 2069.11 1634.97 2067.81 1673.77 2067.81C1713.89 2067.81 1709.4 2073.9 1727.67 1994.88C1735.93 1959.13 1749.9 1899.19 1758.68 1861.69C1780 1770.73 1780.61 1777.85 1751.46 1776.86C1718.85 1775.75 1721.46 1771.06 1702.33 1865.18C1672.49 2011.99 1674.69 2009.12 1657.93 1923.26C1625.67 1758.15 1632.56 1776.06 1601.24 1776.13C1588.81 1776.16 1576.72 1777.41 1574.34 1778.9ZM1809.33 1778.18C1802.61 1780.88 1803.66 2063.3 1810.37 2065.89C1817.57 2068.64 1847.45 2068.18 1852.09 2065.23C1855 2063.37 1856.22 2039.53 1856.84 1970.93C1857.87 1859.21 1858.47 1858.61 1887.4 1940.96C1937.17 2082.77 1928.06 2068.26 1966.77 2067.12L1997.21 2066.22V1921.94V1777.67L1974.39 1776.74C1943.38 1775.49 1944.65 1771.36 1945.1 1873.08C1945.65 1995.62 1948.55 1998.02 1887.43 1825.36C1878.81 1801.01 1870.01 1779.98 1867.9 1778.64C1863.68 1775.95 1815.75 1775.59 1809.33 1778.18ZM2364.2 1778.68C2361.06 1780.71 2360.38 1811.87 2361.02 1923.73L2361.86 2066.22L2436.37 2067.12C2530.25 2068.25 2525.15 2069.48 2525.15 2045.62C2525.15 2022.56 2528.08 2023.65 2463.32 2022.59L2415.75 2021.83V1982.19V1942.56L2461.51 1941.67C2514.37 1940.65 2515.64 1940.08 2515.64 1917.19C2515.64 1894.3 2514.37 1893.73 2461.51 1892.7L2415.75 1891.82V1858.52V1825.24L2466.49 1823.64L2517.23 1822.06V1799.87V1777.67L2442.7 1776.89C2401.73 1776.46 2366.4 1777.27 2364.2 1778.68ZM2560.79 1778.56C2557.66 1780.67 2556.97 1811.93 2557.63 1923.73L2558.45 2066.22L2578.96 2067.19C2616.35 2068.94 2613.66 2073.61 2614.67 2005.13L2615.52 1945.73L2635.87 1944.76C2677.47 1942.82 2684.22 1952.03 2686.72 2014.23C2688.87 2067.81 2688.87 2067.81 2721.61 2067.81C2749.26 2067.81 2751.03 2067 2746.97 2056.31C2745.37 2052.09 2743.22 2032.62 2742.21 2013.05C2739.43 1959.76 2736.43 1949.29 2719.81 1935.41C2703.13 1921.48 2703.22 1922.13 2716.96 1913.25C2757.64 1886.89 2751.29 1808.53 2706.69 1786.63C2687.81 1777.34 2572.07 1770.96 2560.79 1778.56ZM2792.26 1779.77C2786.49 1785.53 2786.6 2054.69 2792.38 2062.61C2795.71 2067.15 2800.53 2067.95 2820.12 2067.17L2843.83 2066.22L2845.58 2002.81C2846.55 1967.93 2847.61 1938.98 2847.96 1938.48C2848.31 1938 2863.92 1938 2882.66 1938.48L2916.76 1939.38L2917.63 2001.07C2918.6 2071.33 2917 2067.69 2947.04 2067.76C2977.58 2067.83 2975.41 2079.11 2975.41 1920.07C2975.41 1761.43 2978.33 1776.08 2946.89 1776.08C2916.67 1776.08 2918.34 1772.85 2918.34 1831.28C2918.34 1892.93 2920.02 1890.24 2881.64 1890.24C2844.16 1890.24 2845.75 1892.84 2844.7 1829.77L2843.83 1777.67L2820 1776.75C2804.19 1776.15 2794.86 1777.17 2792.26 1779.77ZM3005.12 1780.78C3003.44 1785.19 3007.62 1806.29 3023.01 1871.2C3026.52 1886.04 3030.77 1904.59 3032.45 1912.43C3046.96 1979.94 3068.15 2063.16 3071.36 2065.21C3076.61 2068.54 3134.42 2068.44 3139.71 2065.07C3144.85 2061.81 3208.58 1788.24 3205.86 1781.13C3203.79 1775.76 3161.45 1773.59 3154.39 1778.51C3152.55 1779.79 3148.8 1792.25 3146.04 1806.2C3113.21 1972.3 3108.84 1989.6 3102.21 1979C3098.91 1973.72 3098.76 1972.96 3078.49 1866.45C3059.77 1768.08 3063.84 1776.08 3032.47 1776.08C3012.84 1776.08 3006.51 1777.17 3005.12 1780.78ZM3236.9 1780C3236.05 1782.2 3235.74 1847.5 3236.19 1925.12L3237.02 2066.22H3317.87H3398.73V2045.62V2025L3347.25 2024.13C3286.77 2023.11 3291.74 2027.54 3293.18 1975.86L3294.1 1942.56L3335.31 1941.78C3393.49 1940.68 3390.8 1941.88 3390.8 1917.19C3390.8 1892.5 3393.49 1893.69 3335.31 1892.6L3294.1 1891.82V1858.52V1825.24L3338.48 1824.46C3400.81 1823.38 3397.64 1824.79 3396.49 1798.98L3395.56 1777.67L3317 1776.82C3255.89 1776.16 3238.1 1776.86 3236.9 1780ZM3439.16 1778.04C3432.95 1780.78 3433.44 2059.22 3439.67 2064.39C3442.43 2066.68 3452.98 2067.74 3467.41 2067.15L3490.68 2066.22L3492.28 2005.97L3493.86 1945.73L3515.59 1944.78C3555.46 1943.04 3562.04 1952.52 3564.9 2015.7C3567.35 2069.65 3566.34 2068.19 3600.09 2067.03C3623.31 2066.23 3623.85 2066.04 3623.24 2058.3C3622.89 2053.93 3621.19 2030.14 3619.48 2005.39C3616.02 1956.08 3612.08 1943.91 3596.74 1935.15C3585.08 1928.49 3582.32 1921.67 3589.65 1917.61C3634.56 1892.64 3632.2 1810.9 3585.86 1787.18L3567.26 1777.67L3505.19 1776.98C3471.06 1776.6 3441.35 1777.08 3439.16 1778.04ZM3652.1 1778.02C3649.72 1779.01 3650.97 1789.66 3656.07 1811.86C3667.96 1863.46 3681.77 1923.4 3692.04 1967.93C3697.27 1990.59 3704.3 2021.12 3707.64 2035.76C3715.02 2067.93 3714.71 2067.71 3752.29 2067.71C3790.05 2067.71 3789.57 2068.07 3797.03 2034.18C3800.45 2018.67 3806.82 1990.99 3811.19 1972.68C3815.56 1954.38 3820.44 1933.67 3822.03 1926.7C3831.89 1883.7 3835.26 1869.23 3842.74 1837.92C3847.32 1818.73 3851.31 1797.33 3851.62 1790.36L3852.18 1777.67L3828.09 1776.75C3796.8 1775.56 3800.38 1768.2 3777.65 1880.75C3750.04 2017.45 3754.29 2020.89 3718.82 1833.17C3707.35 1772.47 3709.78 1776.04 3680.21 1776.34C3666.66 1776.48 3654.01 1777.24 3652.1 1778.02ZM4155.01 1783.95C4153.37 1788.29 4148.4 1805.42 4144 1822.01C4139.57 1838.62 4132.25 1866.1 4127.7 1883.11C4123.15 1900.11 4116.23 1926.14 4112.29 1940.96C4108.35 1955.8 4099.75 1988.16 4093.19 2012.91C4078.45 2068.35 4078.3 2067.81 4108.53 2067.81C4136.52 2067.81 4136.74 2067.6 4143.87 2035.24C4150.52 2005.1 4151.65 2004.39 4192.22 2004.39C4230.5 2004.39 4232.15 2005.5 4238.91 2036.02C4241.81 2049.05 4245.68 2061.53 4247.54 2063.75C4252.85 2070.15 4297.32 2069.27 4299.84 2062.71C4302.36 2056.13 4229.06 1781.94 4223.89 1778.66C4212.82 1771.63 4158.1 1775.83 4155.01 1783.95ZM4333.35 1778.18C4330.26 1779.43 4329.39 1811.22 4329.39 1922.15V2064.51L4336.63 2066.34C4340.6 2067.33 4353.08 2067.71 4364.37 2067.19L4384.89 2066.22L4386.46 2021.57C4387.99 1978.69 4388.41 1976.45 4396.93 1965.27C4410.98 1946.88 4409.54 1945.46 4441.49 2009.54C4473.25 2073.24 4464.93 2067.81 4530.58 2067.81C4594.21 2067.81 4590.91 2069.39 4597.79 2035.47C4603.88 2005.5 4605.58 2004.39 4645.51 2004.39C4685.07 2004.39 4687.57 2006.12 4693.73 2037.76C4699.52 2067.48 4699.91 2067.81 4729.13 2067.81C4759.93 2067.81 4759.23 2069.27 4747.89 2027.8C4742.7 2008.81 4725.71 1945.65 4710.16 1887.41C4678.28 1768.13 4683 1776.18 4644.9 1776.18C4610.23 1776.18 4609.6 1776.54 4603.51 1800.06C4596.15 1828.52 4579.08 1892.95 4556.94 1975.86C4540.05 2039.04 4536.13 2050.37 4531.17 2050.37C4524.18 2050.37 4450.24 1915.92 4450.08 1902.93C4450.03 1898.12 4464.29 1872.68 4486.33 1838.3C4527.56 1773.98 4527.23 1776.08 4495.93 1776.08C4464.1 1776.08 4467.4 1773.26 4428.86 1833.36C4409.93 1862.91 4392.99 1886.6 4391.24 1886.02C4389.33 1885.38 4387.7 1864.18 4387.18 1833.03C4386.55 1796.36 4385.16 1780.4 4382.42 1778.64C4378.19 1775.95 4339.77 1775.59 4333.35 1778.18ZM4790.63 1780.05C4789.78 1782.22 4789.46 1847.5 4789.93 1925.12L4790.75 2066.22L4844.37 2067.1C4948.93 2068.8 4971.68 2047.77 4977.9 1943.64C4984.14 1839.24 4962.11 1789.45 4905.29 1779.55C4876.66 1774.57 4792.59 1774.93 4790.63 1780.05ZM5025.27 1780.05C5024.44 1782.22 5024.12 1847.5 5024.57 1925.12L5025.39 2066.22H5106.25H5187.12V2045.62V2025L5134.94 2024.12C5073.68 2023.09 5077.83 2026.06 5077.76 1983.25C5077.69 1937.53 5073.68 1940.96 5127.09 1940.96C5178.84 1940.96 5179.19 1940.79 5179.19 1914.62C5179.19 1894.65 5176.85 1893.71 5125.06 1892.7L5079.31 1891.82L5078.37 1864.87C5076.82 1820.43 5072.8 1823.64 5129.99 1823.64C5175.16 1823.64 5179.22 1823.17 5182.24 1817.51C5186.74 1809.13 5186.39 1784.56 5181.72 1779.89C5176.15 1774.32 5027.4 1774.48 5025.27 1780.05ZM5227.55 1778.18C5224.46 1779.43 5223.58 1811.16 5223.58 1921.87C5223.58 2081.5 5221.2 2067.81 5248.95 2067.81C5276.43 2067.81 5274.31 2076.85 5274.31 1959.84C5274.31 1899.94 5275.55 1854.96 5277.23 1853.92C5281.97 1850.99 5293.07 1894.2 5324.05 2036.09C5330.66 2066.39 5331.91 2067.81 5351.6 2067.76C5377.29 2067.69 5373.36 2076.9 5401.44 1950.49C5405.12 1933.92 5409.42 1914.66 5411 1907.68C5412.58 1900.7 5414.78 1890 5415.9 1883.89C5418.39 1870.09 5426.25 1854.04 5429.14 1856.91C5430.32 1858.09 5431.98 1905.67 5432.87 1962.64L5434.45 2066.22L5454.54 2067.17C5485.91 2068.66 5483.59 2080.2 5483.59 1922.19C5483.59 1760.51 5488.13 1776.06 5440.94 1776.13C5395.99 1776.2 5398.21 1774.17 5388.22 1824.25C5371.13 1909.87 5359.59 1964.34 5358.01 1966.89C5356.36 1969.56 5347.25 1970.64 5347.25 1968.15C5347.25 1966.28 5337.17 1915.94 5322.17 1842.97C5315.09 1808.49 5307.72 1780.28 5305.39 1778.8C5301 1776.01 5234.23 1775.49 5227.55 1778.18ZM5534.95 1779.89C5529.49 1785.36 5529.49 2058.53 5534.95 2063.99C5538.89 2067.93 5574.26 2069.32 5583.21 2065.89C5590.86 2062.95 5590.86 1780.93 5583.21 1778C5574.26 1774.57 5538.89 1775.95 5534.95 1779.89ZM343.826 1819.11C347.175 1822.15 349.917 1827.37 349.917 1830.7C349.917 1837.28 294.232 1969.06 289.252 1974.25C274.016 1990.14 274.71 1862.49 290.033 1832.46C300.635 1811.67 328.087 1804.86 343.826 1819.11ZM565.507 1822.86C586.556 1833.41 592.074 1866 575.849 1883.91C565.594 1895.24 534.463 1903.69 524.971 1897.72C517.891 1893.26 515.115 1824.25 521.83 1819.98C528.962 1815.47 554.054 1817.12 565.507 1822.86ZM2666.71 1822.49C2695.74 1836.27 2694.39 1885.97 2664.56 1901.4C2653.64 1907.04 2623.07 1907.61 2617.74 1902.28C2612.5 1897.04 2612.5 1826.36 2617.74 1821.11C2623.28 1815.59 2653.99 1816.46 2666.71 1822.49ZM3544.67 1822.3C3587.82 1842.78 3564.31 1907.42 3514.47 1905.35L3493.86 1904.5L3492.97 1863.53C3492.3 1832.89 3493.1 1821.9 3496.13 1819.98C3503.06 1815.59 3533.58 1817.05 3544.67 1822.3ZM4893.81 1822.86C4931.74 1841.81 4934.24 2002.57 4896.89 2021.88C4883.12 2028.99 4854.14 2031.82 4847.89 2026.63C4841.37 2021.24 4840.55 1822.03 4847.04 1819.41C4856.32 1815.66 4883.39 1817.65 4893.81 1822.86ZM1470.64 1891.56C1487.02 1964.81 1487.46 1963.17 1451.93 1963.17C1426.22 1963.17 1422.33 1959.25 1427.31 1938.39C1429.27 1930.22 1434.58 1906.57 1439.09 1885.83C1453.11 1821.45 1455.04 1821.8 1470.64 1891.56ZM4196.24 1843.46C4206.22 1866.64 4221.53 1955.3 4216.23 1959.2C4201.29 1970.22 4160.25 1961.7 4163.07 1948.16C4186.79 1833.65 4189.01 1826.66 4196.24 1843.46ZM4655.92 1865.32C4679.36 1965.14 4679.59 1963.17 4644.52 1963.17C4623.55 1963.17 4612.67 1957.36 4616.23 1948.08C4617.24 1945.47 4620.27 1932.46 4623 1919.17C4642.38 1824.58 4645.26 1819.89 4655.92 1865.32ZM364.459 1879.06C367.651 1891.8 363.799 1989.01 359.565 2002.55C350.559 2031.32 320.626 2042.88 300.34 2025.44L291.629 2017.94L298.379 2000.86C339.314 1897.09 359.6 1859.72 364.459 1879.06ZM571.32 1942.26C598.893 1956.53 598.494 2008.24 570.695 2021.43C554.922 2028.92 528.945 2031.74 522.802 2026.63C516.399 2021.32 515.635 1939.38 521.951 1936.54C529.118 1933.29 561.151 1937.01 571.32 1942.26Z"/>
<path fill-rule="evenodd" clip-rule="evenodd" d="M3.07144 5.34093C-0.954381 15.8394 0.884977 1409.91 4.92815 1413.96C7.75664 1416.8 40.4144 1417.78 132.227 1417.78H255.727L271.917 1402.94C280.801 1394.78 302.423 1374.45 319.931 1357.75C337.44 1341.06 380.197 1300.3 414.937 1267.15C449.695 1234.01 495.298 1190.38 516.294 1170.2C716.423 977.655 801.174 897.746 805.199 897.746C807.837 897.746 831.575 915.931 857.952 938.178C884.345 960.407 921.202 991.434 939.873 1007.14C958.545 1022.82 990.717 1049.95 1011.38 1067.39C1032.05 1084.83 1100.37 1142.39 1163.19 1195.31C1226 1248.22 1307.37 1316.82 1344 1347.72C1380.61 1378.65 1414.87 1407.07 1420.13 1410.89L1429.65 1417.83L1616.71 1417.01C1779.19 1416.3 1803.78 1415.57 1803.78 1411.51C1803.78 1406.74 1788.63 1393.64 1626.21 1257.85C1517.16 1166.7 1373.47 1046.37 1302.77 987.009C1274.87 963.582 1193.19 895.229 1121.24 835.137C1049.3 775.061 990.439 724.703 990.439 723.263C990.439 721.823 1137.76 579.043 1317.83 405.983C1497.9 232.923 1664.24 72.9823 1687.48 50.5451C1710.73 28.0905 1729.16 7.97856 1728.45 5.84416C1727.44 2.85947 1687.55 1.76624 1554.99 1.14154L1382.84 0.308594L1353.91 28.3161C1338 43.7254 1222.95 153.899 1098.25 273.182C853.631 507.168 740.335 615.606 682.776 670.822C662.682 690.119 620.584 730.343 589.245 760.207C557.889 790.071 524.988 821.462 516.121 829.965C354.758 984.631 253.401 1080.07 250.486 1080.07C247.796 1080.07 246.46 942.186 245.28 541.006L243.701 1.95714L124.349 1.12419C17.5783 0.37802 4.80671 0.829195 3.07144 5.34093ZM2442.7 2.33889C2308.93 15.6485 2243.86 30.2249 2163.67 64.7918C1942.2 160.25 1849.78 349.968 1849.78 709.068C1849.78 1182.07 2013.15 1376.37 2442.89 1414.51C2520.65 1421.42 3526.41 1418.75 3530.21 1411.63C3535.28 1402.16 3534.66 1182.7 3529.54 1175.88C3525.88 1171 3485.15 1170.51 2988.1 1169.54C2412.72 1168.4 2433.35 1168.94 2355.51 1153.04C2236.83 1128.8 2169.48 1079.83 2133.1 991.278C2124 969.153 2109.17 910.778 2111.63 906.804C2112.55 905.311 2344.04 904.079 2626.02 904.079C3068.72 904.079 3144.57 903.403 3181.53 899.151C3466.96 866.354 3587.41 733.727 3587.41 452.229C3587.41 188.917 3478.71 51.4821 3240.18 13.2538C3227.98 11.2929 3209.43 8.10002 3198.97 6.1565C3181.35 2.89417 2473.09 -0.697861 2442.7 2.33889ZM3957.19 5.27153C3954.35 12.6812 3954.87 239.049 3957.73 243.561C3959.57 246.476 4081.13 247.656 4478.5 248.628C5021.76 249.964 5010.99 249.704 5087.23 263.274C5234.04 289.39 5327.03 370.757 5342.96 487.021L5344.94 501.372L4837.95 501.407C4263.02 501.441 4260.66 501.528 4159.56 525.371C3945.5 575.868 3840.29 745.266 3859.78 1008.02C3879.23 1270.14 4010.21 1390.83 4300.85 1414.48C4334.7 1417.24 4511.18 1417.95 4969.91 1417.2L5592.98 1416.18V965.908C5592.98 547.53 5592.58 513.068 5587.27 479.178C5542.71 195.164 5391.77 55.9418 5076.13 7.70092C5023.34 -0.368157 3960.25 -2.67607 3957.19 5.27153ZM238.946 550.255C240.196 976.892 241.359 1092.5 244.447 1093.54C246.616 1094.25 263.015 1080.82 280.923 1063.67C834.63 533.527 982.283 392.292 1047.51 330.36C1079.79 299.732 1125.44 256.003 1148.99 233.184C1172.54 210.365 1206.06 178.279 1223.5 161.881C1240.94 145.465 1272.33 115.601 1293.26 95.489C1314.19 75.3944 1343.62 47.196 1358.66 32.8279L1386.03 6.71182H1551.54C1694.37 6.71182 1716.91 7.33651 1716.02 11.3103C1715.17 15.0932 1573.51 152.649 1389.97 327.896C1369.93 347.036 1336.38 379.295 1315.46 399.563C1294.53 419.814 1246.74 465.729 1209.24 501.598C1029.93 673.044 984.106 718.161 984.106 723.211C984.106 728.555 1094.85 822.122 1659.63 1293.93C1780.52 1394.92 1792.67 1405.4 1792.67 1408.73C1792.67 1410.21 1710.92 1411.42 1610.99 1411.42H1429.29L1385.06 1373.99C1360.73 1353.41 1272.33 1278.94 1188.62 1208.5C1104.91 1138.07 1024.29 1070.11 1009.48 1057.48C924.447 985.065 810.926 890.457 807.49 889.139C801.972 887.022 635.23 1044.57 289.2 1378.87L255.414 1411.51L132.227 1410.68L9.05814 1409.85L8.24255 712.244C7.79138 328.555 8.10373 12.8373 8.95402 10.6335C10.1514 7.49266 34.8616 6.81592 123.916 7.45798L237.35 8.29092L238.946 550.255ZM3203.72 13.8265C3458.13 52.7489 3562.56 160.232 3581.28 402.409C3601.01 657.704 3502.48 818.651 3293.45 872.532C3197.18 897.364 3188.78 897.676 2613.05 897.711C2163.19 897.746 2106.18 898.284 2104.55 902.552C2103.54 905.19 2105.87 920.53 2109.72 936.633C2139.29 1059.87 2204.03 1123.19 2331.99 1154.08C2423.82 1176.22 2440.34 1176.78 3015.17 1176.78C3475.6 1176.78 3523.48 1177.25 3525.23 1181.79C3527.77 1188.39 3527.64 1394.99 3525.11 1404.47L3523.15 1411.79L2975.79 1410.56C2580.76 1409.67 2421.83 1408.3 2404.67 1405.65C2391.58 1403.62 2370.17 1400.44 2357.1 1398.58C2049.09 1355.13 1899.04 1193.35 1861.72 864.445C1856.37 817.298 1856.43 597.455 1861.8 550.533C1901.87 200.821 2067.42 42.5107 2426.86 10.1476C2485.88 4.83768 3166 8.04798 3203.72 13.8265ZM5072.95 14.0173C5386.95 61.8244 5532.66 193.914 5579.5 473.139L5586.63 515.653V962.749L5586.65 1409.85H4939.79C4275.96 1409.85 4287.07 1410.02 4216.82 1398.31C3964.53 1356.21 3844.85 1188.86 3866.21 908.053C3884.68 665.183 3992.12 554.142 4246.53 514.942C4276.38 510.343 4341.43 509.545 4814.54 507.931L5348.83 506.127L5349.8 494.396C5350.41 487.091 5346.45 469.72 5339.32 448.411C5299.06 328.052 5207.87 269.625 5025.39 247.274C5002.17 244.428 4855.82 242.901 4478.42 241.583L3963.15 239.778L3962.31 127.227C3961.86 65.3297 3962.19 12.8374 3963.06 10.5815C3965.73 3.5883 5026.01 6.86795 5072.95 14.0173ZM2462.88 238.286C2241.24 253.088 2132.84 334.802 2103.28 509.302C2088.67 595.615 2087.09 655.517 2099.33 660.168C2114.95 666.12 3118.82 662.007 3157.74 655.847C3308.46 631.987 3340.86 596.344 3341.4 453.808C3341.92 310.838 3309.19 268.896 3177.69 244.029C3139.05 236.724 2556.4 232.056 2462.88 238.286ZM3164.73 248.645C3302.98 272.488 3334.72 310.144 3335.01 450.65C3335.24 569.343 3310.37 611.389 3225.45 635.926C3156.82 655.743 3103.98 657.374 2566.38 656.194L2098.67 655.17L2099.55 612.361C2104.81 360.345 2212.1 257.755 2485.51 243.353C2558.84 239.483 3137.78 243.995 3164.73 248.645ZM4323.04 747.748C4156.97 757.812 4106.3 808.083 4106.36 962.749C4106.41 1107.21 4133.64 1142.07 4265.46 1166.38C4294.04 1171.64 4331.4 1172.02 4825.63 1172.02H5355.18V959.574V747.123L4847.84 746.915C4568.79 746.793 4332.64 747.175 4323.04 747.748ZM5350.41 959.661V1167.44L4821.67 1166.38C4295.59 1165.33 4292.74 1165.29 4257.67 1158.51C4153.5 1138.33 4122.6 1107.51 4113.58 1014.77C4096.73 841.175 4141.51 775.79 4289.62 757.899C4305.39 755.99 4318.89 753.856 4319.6 753.162C4320.33 752.45 4552.56 751.878 4835.67 751.878H5350.41V959.661ZM374.54 1762.61C371.538 1768.74 368.415 1770.92 364.059 1769.99C317.936 1760.06 262.06 1772.33 243.666 1796.47C209.881 1840.75 206.341 1992.71 237.975 2040.73C245.731 2052.47 246.009 2054.17 242.4 2067.66C236.239 2090.7 258.52 2104.06 269.071 2083.64C273.756 2074.6 274.71 2074.23 287.395 2076.51C337.527 2085.5 382.228 2073.87 402.773 2046.52C432.481 2006.94 436.09 1863.67 408.743 1809.79C400.344 1793.26 398.418 1786.61 400.76 1782.25C404.977 1774.36 404.613 1762.28 400.031 1757.7C392.847 1750.52 379.174 1753.15 374.54 1762.61ZM396.283 1764.85C397.272 1767.4 396.439 1774.39 394.461 1780.38C391.199 1790.27 391.754 1792.68 400.344 1806.22C425.141 1845.32 428.247 1982.78 405.428 2030.89C388.301 2066.98 344.433 2080.43 281.2 2068.98C272.35 2067.38 270.546 2068.33 266.069 2076.99C256.75 2095.01 241.549 2086.12 249.497 2067.33C253.731 2057.35 253.453 2055.75 245.003 2040.67C212.05 1981.93 216.631 1834.16 252.603 1795.6C270.459 1776.46 323.818 1767.44 361.821 1777.14C371.209 1779.53 372.614 1778.89 377.664 1770.02C383.512 1759.75 393.299 1757.04 396.283 1764.85ZM2080.07 1774.38C2044.48 1789 2030.49 1811.84 2030.49 1855.36C2030.49 1908.13 2049.49 1928.45 2124.04 1955.38C2150.38 1964.91 2164.05 1983.48 2159.13 2003.09C2149.89 2039.89 2098.36 2033.63 2094.66 1995.24C2092.77 1975.51 2088.31 1972.68 2059.03 1972.68C2022.59 1972.68 2017.41 1981.45 2029.28 2022.92C2040.54 2062.24 2070.57 2079.08 2128.79 2078.68C2197.54 2078.22 2230.32 2047.53 2230.17 1983.77C2230.06 1938.9 2211.55 1918.53 2148.19 1893.56C2105.59 1876.76 2094.42 1864.89 2098.88 1841.13C2104.9 1808.94 2154.16 1812.38 2154.16 1844.97C2154.16 1859.21 2159.14 1861.7 2187.71 1861.7C2219.74 1861.7 2222.46 1859.37 2219.53 1834.42C2212.95 1778.44 2143.21 1748.4 2080.07 1774.38ZM3922.99 1772.5C3850.99 1801.36 3850.32 1908.25 3921.93 1938.48C3928.91 1941.43 3945.65 1948.3 3959.14 1953.77C3999.45 1970.12 4011.99 1995.66 3990.35 2017.32C3967.43 2040.24 3933.02 2022.97 3933.02 1988.56C3933.02 1975.55 3922.49 1971.66 3892.28 1973.52C3864.63 1975.2 3862.5 1977.39 3865.17 2001.21C3871.35 2056.36 3899.77 2078.45 3964.74 2078.66C4036.84 2078.87 4069.38 2050.22 4069.38 1986.46C4069.38 1937.86 4056.88 1922.83 3994.02 1895.85C3948.33 1876.22 3939.37 1868.74 3939.37 1850.26C3939.37 1808.72 3984.84 1805.39 3994.68 1846.2L3998.02 1860.12L4026.88 1861.02C4062.75 1862.15 4064.07 1861.02 4059.68 1832.94C4051.35 1779.63 3981.87 1748.92 3922.99 1772.5ZM3.34907 1774.91C-0.815579 1779.08 0.728803 2066.13 4.92815 2070.35C7.27077 2072.67 18.6715 2074.15 34.4277 2074.15C68.144 2074.15 67.7102 2074.77 67.7102 2027.17C67.7102 1987.19 74.8595 1961.08 84.9761 1964.03C86.8155 1964.56 99.8821 1987.64 114.025 2015.32C144.808 2075.6 143.16 2074.15 180.503 2074.15C222.93 2074.15 222.826 2074.67 192.164 2017.91C133.165 1908.69 130.631 1903.43 134.015 1897.13C135.767 1893.85 152.981 1866.42 172.277 1836.17C191.574 1805.92 206.844 1779.67 206.237 1777.85C205.543 1775.76 191.955 1774.5 170.577 1774.5H136.045L105.435 1821.94C66.5128 1882.22 68.0746 1882.17 66.9987 1823.09L66.1311 1774.5L35.8507 1773.6C19.1921 1773.11 4.56375 1773.7 3.34907 1774.91ZM456.844 1774.86C452.645 1779.06 454.12 2066.1 458.371 2070.35C464.358 2076.33 571.754 2075.48 595.787 2069.25C658.934 2052.92 680.156 1956.25 628.08 1922.24L616.385 1914.6L628.566 1901.4C660.53 1866.71 651.021 1801.74 611.092 1782.1C595.492 1774.41 463.49 1768.22 456.844 1774.86ZM688.155 1775.04C684.06 1779.11 685.709 2066.2 689.839 2070.35C695.253 2075.76 854.394 2075.76 859.808 2070.35C865.135 2065.02 864.823 2025.19 859.427 2020.72C856.876 2018.6 835.393 2016.9 804.713 2016.36L754.217 2015.49V1982.19V1948.89L799.976 1948.01C855.487 1946.95 854.637 1947.45 853.422 1915.91L852.503 1891.82L809.711 1891.06C747.935 1889.93 752.204 1892.34 753.297 1859.23L754.217 1831.57L804.28 1829.99C861.491 1828.17 860.311 1828.8 860.381 1800.93C860.468 1770.61 867.617 1772.92 773.427 1772.92C727.685 1772.92 689.318 1773.87 688.155 1775.04ZM887.434 1776.01C883.529 1782.34 885.247 2064.92 889.238 2069.7C891.754 2072.74 899.928 2074.15 914.938 2074.15C951.743 2074.15 949.227 2080.86 949.227 1983.03C949.227 1926.2 950.268 1899.53 952.419 1901.68C955.248 1904.51 963.525 1927.12 1000.5 2032.93C1015.31 2075.33 1013.93 2074.15 1048.92 2074.15C1065.3 2074.15 1080.97 2073.28 1083.73 2072.22C1088.2 2070.5 1088.74 2054.28 1088.74 1921.62V1772.92H1058.97C1022.14 1772.92 1025.32 1764.61 1025.32 1861C1025.32 1906.38 1024.16 1937.81 1022.52 1936.05C1020.98 1934.4 1015.97 1922.34 1011.37 1909.26C1006.77 1896.18 994.049 1860.52 983.099 1829.99L963.178 1774.5L926.321 1773.61C903.311 1773.06 888.7 1773.96 887.434 1776.01ZM1125.55 1777.93C1124.49 1780.69 1123.62 1846.22 1123.62 1923.56C1123.62 2087.53 1120.52 2074.15 1158.5 2074.15C1194.58 2074.15 1193.38 2076.54 1193.38 2004.16V1944.14H1223.5H1253.63V2005.34C1253.63 2048.71 1254.74 2067.66 1257.43 2070.35C1263.41 2076.33 1312.18 2075.4 1318.4 2069.17C1323.92 2063.65 1326.11 1785.27 1320.7 1776.75C1318.8 1773.77 1309.68 1772.92 1286.67 1773.58L1255.21 1774.5L1253.63 1828.41L1252.05 1882.31H1223.5H1194.96L1194.09 1831.8C1193.55 1801.13 1191.85 1779.65 1189.73 1777.1C1184.29 1770.52 1128.1 1771.25 1125.55 1777.93ZM1412.77 1778.45C1403.05 1797.8 1335.48 2064.86 1339.18 2069.32C1342.21 2072.98 1349.99 2074.15 1371.26 2074.15C1404.21 2074.15 1405.6 2072.98 1412.23 2039.27C1417.89 2010.51 1417.58 2010.74 1453.39 2010.74C1489.62 2010.74 1489.12 2010.38 1496.27 2041.77C1503.23 2072.38 1505.4 2074.15 1535.8 2074.15C1576.32 2074.15 1576.04 2074.75 1560.98 2019.5C1555.62 1999.86 1546.52 1965.95 1540.76 1944.14C1535 1922.34 1526.45 1890.24 1521.74 1872.8C1517.06 1855.36 1509.61 1827.53 1505.22 1810.96C1500.82 1794.4 1495.75 1779.06 1493.94 1776.88C1488.27 1770.02 1416.31 1771.43 1412.77 1778.45ZM1565.73 1777.12C1564.24 1781.02 1568.89 1803.46 1592.53 1906.08C1597.54 1927.9 1607.69 1972.13 1615.07 2004.39C1631.81 2077.58 1628.93 2074.15 1673.77 2074.15C1716.86 2074.15 1716.42 2074.49 1725.69 2032.93C1729.39 2016.36 1736.71 1984.26 1741.97 1961.58C1747.22 1938.92 1752.92 1913.95 1754.62 1906.08C1756.33 1898.24 1760.6 1879.69 1764.11 1864.87C1788.04 1763.69 1789.63 1772.92 1748.32 1772.92C1709.57 1772.92 1715.52 1762.06 1694.33 1871.21C1676.63 1962.41 1676.04 1964.93 1673.44 1962.33C1671.81 1960.69 1657.67 1891.82 1645.28 1825.24C1642.36 1809.53 1638.6 1791.35 1636.93 1784.81L1633.89 1772.92H1600.61C1575.9 1772.92 1566.93 1773.99 1565.73 1777.12ZM1801.14 1775.04C1797.04 1779.11 1798.69 2066.2 1802.82 2070.35C1808.25 2075.78 1854.26 2075.43 1858.82 2069.93C1861.13 2067.15 1862.62 2037.67 1863.18 1983.51C1864.18 1886.37 1861.6 1885.68 1899.29 1993.3C1929.62 2079.87 1924.88 2074.15 1966.06 2074.15C2008.56 2074.15 2005.14 2087.44 2005.09 1922.54C2005.03 1757.42 2008.28 1772.92 1973.68 1772.92C1936.11 1772.92 1938.54 1766.91 1938.54 1859.8C1938.54 1906.92 1937.38 1937.84 1935.67 1936.05C1934.11 1934.4 1920.51 1898.9 1905.46 1857.15C1890.42 1815.42 1876.54 1779.37 1874.63 1777.08C1870.97 1772.68 1805.32 1770.84 1801.14 1775.04ZM2165.82 1778.02C2196.07 1788.29 2216.04 1814.98 2213.79 1842.09L2212.81 1853.77L2191.12 1854.72C2166.66 1855.78 2162.02 1853.4 2159.19 1838.3C2153.21 1806.34 2107.59 1802.16 2094.94 1832.42C2082.86 1861.35 2095.49 1876.81 2151.4 1901.52C2214.38 1929.35 2226.4 1945.16 2223 1995.68C2219.62 2045.86 2192.23 2069.53 2133.13 2073.33C2069.64 2077.43 2025.15 2040.76 2031.08 1989.26L2032.09 1980.62H2059H2085.91L2088.08 1995.87C2094.43 2040.24 2151.65 2048.93 2164.09 2007.41C2172.92 1977.93 2161.26 1964.27 2108.63 1942.53C2042.95 1915.39 2023.34 1880.68 2040.73 1822.43C2052.6 1782.74 2114.74 1760.69 2165.82 1778.02ZM2353.96 1779.17C2348.11 1790.13 2351.08 2067.24 2357.1 2071.04C2363.7 2075.22 2517.53 2075.07 2525.35 2070.87C2532.94 2066.81 2534.5 2026.69 2527.31 2020.72C2524.76 2018.6 2503.28 2016.9 2472.6 2016.36L2422.11 2015.49L2421.2 1981.4L2420.3 1947.32H2466.16C2521.15 1947.32 2522 1946.86 2521.94 1917.76C2521.87 1889.6 2523.62 1890.54 2469.53 1889.53L2422.11 1888.65L2421.19 1859.32L2420.28 1829.99H2469.15C2527.16 1829.99 2525.84 1830.76 2524.5 1797.79L2523.57 1774.5L2440.46 1773.65C2360.09 1772.83 2357.26 1773.02 2353.96 1779.17ZM2553.5 1792.74C2552.16 1937.56 2554.11 2069.29 2557.63 2071.53C2564.55 2075.92 2612.76 2074.63 2616.65 2069.95C2618.82 2067.34 2620.46 2044.28 2621 2008.92L2621.87 1952.07L2634.42 1951.05C2669.59 1948.18 2676.18 1955.37 2678.84 1999.63C2683.49 2076.68 2682 2074.15 2722.93 2074.15C2757.13 2074.15 2761.18 2071.89 2754.74 2056.46C2752.27 2050.58 2749.08 2026.2 2747.61 2002.12C2744.74 1955.52 2741.15 1943.55 2726.58 1932.08C2716.63 1924.25 2716.63 1922.8 2726.59 1914.97C2756.49 1891.46 2757.95 1822.88 2729.18 1793.79C2710.3 1774.72 2701.9 1773.06 2624.25 1772.99L2553.69 1772.92L2553.5 1792.74ZM2785.9 1776.62C2779.33 1783.19 2780.35 2062.54 2786.98 2069.17C2793.19 2075.4 2841.97 2076.33 2847.96 2070.35C2850.65 2067.66 2851.76 2048.69 2851.76 2005.22V1943.91L2881.08 1944.82L2910.41 1945.74L2911.28 2005.74C2911.82 2043.45 2913.45 2067.31 2915.63 2069.95C2920.94 2076.35 2970.22 2075.71 2976.78 2069.17C2982.28 2063.65 2984.47 1785.27 2979.07 1776.75C2977.18 1773.77 2968.06 1772.92 2945.03 1773.58L2913.59 1774.5L2912.01 1828.41L2910.41 1882.31H2881.88H2853.34L2851.76 1828.41L2850.16 1774.5L2819.99 1773.6C2799.23 1772.99 2788.59 1773.93 2785.9 1776.62ZM2997.61 1782.78C2997.61 1788.19 3001.81 1809.95 3006.94 1831.14C3012.06 1852.31 3019.19 1882.47 3022.79 1898.17C3028.74 1924.18 3036.65 1958.49 3054.98 2037.69C3063.32 2073.77 3063.86 2074.15 3105.42 2074.15C3145.71 2074.15 3147.52 2073.09 3154.13 2045.62C3162.84 2009.37 3174.52 1959.62 3184.67 1915.61C3199.61 1850.8 3202.79 1837.18 3209.97 1806.84C3218.25 1771.96 3219.04 1772.92 3181.74 1772.92C3142.5 1772.92 3145.97 1766.93 3127.54 1866.45C3111.98 1950.46 3105.23 1971.63 3100.99 1949.69C3100.25 1945.77 3098.15 1934.72 3096.33 1925.12C3063.55 1751.58 3072.71 1772.92 3030.98 1772.92H2997.61V1782.78ZM3231.02 1777.93C3227.74 1786.49 3228.83 2057.19 3232.18 2066.03L3235.27 2074.15L3317 2074.09C3412.27 2074.04 3408.24 2075.27 3408.24 2046C3408.24 2017.46 3411.09 2018.91 3351.71 2017.07L3300.43 2015.49V1982.19V1948.89L3346.95 1947.32C3400.33 1945.49 3397.92 1946.64 3399.67 1922.33C3401.96 1890.78 3401.14 1890.24 3350.27 1890.19C3296.23 1890.14 3298.35 1891.46 3299.51 1858.26L3300.43 1831.57L3350.13 1829.99C3406.97 1828.17 3404.25 1829.39 3406.02 1805C3408.47 1771.27 3413.07 1772.92 3316.51 1772.92C3243.23 1772.92 3232.7 1773.53 3231.02 1777.93ZM3430.97 1775.04C3429.81 1776.2 3428.86 1842.49 3428.86 1922.36C3428.86 2090.42 3424.81 2074.15 3466.58 2074.15C3499.45 2074.15 3498.61 2075.93 3498.61 2006.19V1950.49H3515.91C3551.66 1950.49 3556.35 1957.34 3558.03 2012.32C3559.94 2074.53 3560.39 2075.1 3606.43 2073.5L3633.37 2072.57L3632.49 2063.06C3632 2057.82 3630.22 2037.13 3628.52 2017.07C3623.81 1961.93 3620.2 1947.77 3607.64 1935.22C3594.61 1922.17 3594.59 1924.06 3607.94 1910.72C3644.81 1873.84 3630.49 1797.49 3583.05 1777.97C3570.35 1772.75 3435.85 1770.14 3430.97 1775.04ZM3643.02 1775.89C3642.02 1777.52 3644.71 1793.57 3648.99 1811.55C3653.3 1829.54 3664.09 1875.65 3672.97 1914.02C3681.88 1952.38 3690.43 1988.77 3691.99 1994.88C3693.55 2000.99 3696.24 2012.41 3697.98 2020.25C3710.32 2076.42 3708.03 2074.15 3752.29 2074.15C3793.61 2074.15 3794.34 2073.64 3802.39 2039.27C3805.88 2024.45 3813.17 1993.06 3818.61 1969.51C3824.06 1945.96 3836.14 1893.89 3845.48 1853.77C3865.83 1766.17 3867.27 1772.92 3828.16 1772.92C3789.43 1772.92 3794.51 1763.96 3773.13 1869.8C3756.87 1950.2 3754.34 1959.95 3750.7 1956.29C3749.1 1954.69 3740.87 1914.14 3725.4 1831.57C3713.46 1767.85 3717.55 1772.92 3678.02 1772.92C3659.79 1772.92 3644.03 1774.26 3643.02 1775.89ZM4005.43 1777.81C4035.7 1786.8 4055.27 1812.97 4052.95 1841.34L4051.94 1853.77L4030.25 1854.72C4006.53 1855.74 3999.62 1852.64 3999.62 1840.94C3999.62 1812.5 3950.89 1801.48 3937.72 1826.92C3921.72 1857.88 3934.36 1876.6 3986.73 1899.53C4052.27 1928.23 4062.84 1940.37 4062.96 1987.17C4063.13 2046.24 4023.19 2078.14 3955.22 2073.21C3902.46 2069.37 3880.11 2051.61 3873.07 2007.84C3868.45 1979.17 3868.97 1978.62 3899.2 1979.7L3924.87 1980.62L3928.39 1998.23C3938.61 2049.38 4004.38 2046.1 4004.38 1994.45C4004.38 1969.86 3993.69 1959.41 3952.77 1944.07C3884.38 1918.41 3863.32 1883.21 3880.88 1824.06C3893.44 1781.73 3949.09 1761.08 4005.43 1777.81ZM4149.17 1781.54C4147.24 1786.38 4142.85 1801.05 4139.41 1814.13C4135.96 1827.22 4126.07 1864.32 4117.39 1896.58C4108.73 1928.85 4097.85 1969.51 4093.24 1986.95C4088.61 2004.39 4082.01 2029.15 4078.58 2041.99C4070.33 2072.81 4071.53 2074.15 4107.33 2074.15C4140.04 2074.15 4143.3 2071.87 4148.12 2045.62C4149.89 2036.02 4152.86 2024.21 4154.72 2019.35L4158.09 2010.51L4192.22 2011.42L4226.33 2012.32L4233.24 2040.53C4241.48 2074.22 4241.27 2074.04 4275.89 2074.09C4314.87 2074.16 4314.09 2077.62 4292.78 1999.1C4282.9 1962.78 4272.13 1922.71 4268.81 1910.06C4265.52 1897.41 4259.82 1876.01 4256.2 1862.49C4252.57 1848.98 4246.95 1827.93 4243.72 1815.73C4240.48 1803.51 4236.57 1789.25 4235.03 1784.01L4232.23 1774.5L4192.44 1773.61L4152.67 1772.73L4149.17 1781.54ZM4325.16 1775.04C4321.06 1779.11 4322.71 2066.2 4326.86 2070.35C4331.02 2074.53 4379.19 2075.66 4385.35 2071.72C4387.7 2070.23 4389.38 2054.19 4390.11 2026.58C4391.11 1987.89 4391.93 1982.78 4398.58 1973.47C4409.23 1958.54 4408.99 1958.28 4438.5 2016.69C4470.21 2079.47 4461.53 2074.15 4532.37 2074.15C4598.74 2074.15 4595.62 2075.66 4603.36 2039.82C4609.78 2010.08 4608.79 2010.74 4648.21 2010.74C4682.15 2010.74 4680.97 2009.84 4687.48 2040.86C4694.16 2072.78 4695.86 2074.15 4728.61 2074.15C4767.23 2074.15 4767.22 2074.18 4754.32 2027.38C4748.67 2006.89 4742.18 1982.99 4739.89 1974.26C4737.61 1965.55 4732.65 1947 4728.88 1933.05C4725.12 1919.1 4718.49 1894.13 4714.14 1877.56C4709.8 1860.98 4703.39 1836.73 4699.92 1823.64C4696.45 1810.57 4692.39 1795.06 4690.9 1789.18C4686.82 1773.09 4685.47 1772.64 4643.23 1773.61L4604.05 1774.5L4583.99 1849.01C4572.97 1890 4558.9 1942.8 4552.74 1966.33C4535.94 2030.57 4532.11 2042.69 4529.19 2040.88C4526.74 2039.37 4514.53 2017.18 4475.9 1944.14C4468.06 1929.32 4460.42 1915.84 4458.93 1914.17C4452.39 1906.9 4458.41 1893.73 4492.7 1840.18C4538.28 1768.96 4538.18 1772.92 4494.48 1772.92H4459.81L4427.26 1823.87C4390.42 1881.51 4388.74 1882 4389.73 1834.75C4390.02 1820.8 4390.13 1801.17 4389.95 1791.14L4389.64 1772.92H4358.46C4341.31 1772.92 4326.32 1773.87 4325.16 1775.04ZM4783.3 1777.1C4777 1784.68 4779.59 2066.95 4785.99 2071.21C4794.43 2076.82 4912.27 2073.14 4926.18 2066.82C4964.53 2049.42 4980.15 2016.43 4984.26 1944.14C4989.37 1854.55 4973.28 1802.59 4933.89 1781.53C4916.87 1772.42 4790.28 1768.7 4783.3 1777.1ZM5017.46 1779.29C5011.87 1789.73 5015.2 2067.6 5020.96 2071.25C5023.39 2072.79 5062.18 2074.08 5107.12 2074.09L5188.85 2074.15L5191.94 2066.03C5195.9 2055.61 5195.91 2035.64 5191.98 2025.28L5188.92 2017.23L5137.28 2016.36L5085.64 2015.49V1982.19V1948.89L5132.54 1947.32C5186.21 1945.49 5185.4 1945.94 5185.49 1918.25C5185.56 1888.92 5187.85 1890.24 5136.83 1890.19C5081.28 1890.14 5083.56 1891.53 5084.72 1858.26L5085.64 1831.57L5135.72 1829.99C5192.93 1828.17 5191.75 1828.8 5191.82 1800.93C5191.91 1770.61 5199.11 1772.92 5104.45 1772.92C5023.98 1772.92 5020.74 1773.14 5017.46 1779.29ZM5219.36 1775.04C5215.26 1779.11 5216.89 2066.2 5221.04 2070.35C5223.33 2072.64 5234.44 2074.15 5248.94 2074.15C5282.76 2074.15 5280.65 2080.67 5280.65 1976.28C5280.65 1926.63 5281.41 1886.77 5282.35 1887.71C5284.15 1889.51 5288.99 1908.72 5299.77 1956.82C5303.48 1973.4 5308.52 1995.5 5310.96 2005.97C5313.41 2016.45 5316.88 2032.76 5318.69 2042.25C5324.06 2070.73 5327.78 2074.15 5353.27 2074.15C5366.91 2074.15 5376.14 2072.67 5378.07 2070.19C5381.95 2065.18 5387.23 2044.06 5407.25 1953.44C5412.48 1929.79 5417.87 1907.68 5419.26 1904.3C5420.63 1900.93 5422.47 1936.38 5423.34 1983.11C5425.16 2080.69 5422.68 2074.03 5457.21 2074.09C5492.66 2074.18 5489.94 2086.75 5489.94 1923.56C5489.94 1846.22 5489.07 1780.69 5488.01 1777.93C5484.46 1768.68 5395.51 1770.65 5391.97 1780.05C5390.49 1783.97 5381.85 1823.57 5372.76 1868.05C5355.7 1951.48 5352.63 1961.44 5349.43 1943.53C5344.33 1914.88 5315.25 1778.18 5313.72 1775.73C5311.73 1772.49 5222.55 1771.83 5219.36 1775.04ZM5530.2 1774.91C5524.97 1780.16 5527.7 2070.19 5533.01 2072.22C5543.18 2076.13 5587.32 2074.3 5591.05 2069.83C5593.64 2066.7 5594.4 2024.8 5593.81 1920L5592.98 1774.5L5562.7 1773.6C5546.06 1773.11 5531.43 1773.7 5530.2 1774.91ZM61.3765 1831.57C63.372 1899.72 63.1117 1899.7 104.88 1834.75C143.628 1774.5 141.823 1776.08 171.479 1776.08C203.443 1776.08 203.443 1776.09 161.172 1842.12C119.664 1906.95 121.018 1900.15 142.223 1937.81C172.642 1991.77 207.573 2061.53 205.699 2064.57C203.217 2068.56 156.625 2068.8 150.378 2064.85C147.88 2063.27 133.39 2037.95 118.172 2008.61C87.527 1949.45 85.3925 1947.52 72.1872 1966.99C63.3893 1979.97 62.8862 1982.63 61.3765 2023.42L59.78 2066.22H34.4277H9.05814L8.22521 1925.12C7.25346 1759.02 4.25141 1775.57 35.1565 1776.74L59.78 1777.67L61.3765 1831.57ZM585.74 1780.81C643.594 1793.07 662.907 1863.4 618.797 1901.16C606.216 1911.93 603.978 1921.95 614.164 1921.95C631.603 1921.95 649.181 1952.97 649.199 1983.77C649.216 2021.91 635.507 2046.38 606.771 2059.55C592.108 2066.25 488.53 2071.46 468.679 2066.46L460.905 2064.52V1922.15C460.905 1811.22 461.772 1779.43 464.861 1778.18C474.18 1774.43 564.917 1776.39 585.74 1780.81ZM850.282 1779.89C854.88 1784.48 855.279 1804.28 851.01 1815.52L847.904 1823.64H798.744C741.341 1823.64 745.385 1820.41 746.929 1864.87L747.866 1891.82L790.675 1892.6C850.542 1893.68 847.748 1892.5 847.748 1916.91C847.748 1941.88 849.778 1940.96 793.92 1940.96C742.504 1940.96 746.27 1937.63 746.339 1983.25C746.391 2026.06 742.261 2023.09 803.499 2024.12L855.678 2025V2045.62V2066.22H774.815H693.969L693.136 1925.12C692.685 1847.5 692.997 1782.22 693.83 1780.05C695.964 1774.48 844.729 1774.32 850.282 1779.89ZM954.484 1778.52C958.805 1781.28 960.87 1786.47 990.439 1869.63C1022.59 1960.03 1022.58 1960 1027.33 1960C1030.89 1960 1031.67 1944.19 1031.67 1871.85C1031.67 1771.44 1030.37 1776.06 1058.46 1776.13C1088.05 1776.22 1085.74 1763.31 1084.8 1923.73L1083.99 2066.22L1053.55 2067.12C1016.17 2068.23 1023.04 2077.57 987.593 1977.44C950.754 1873.41 952.437 1877.56 947.248 1877.56C943.639 1877.56 942.876 1893.38 942.876 1968.88C942.876 2035.68 941.852 2061.22 939.075 2064C935.136 2067.95 905.949 2069.25 897.169 2065.89C890.436 2063.3 889.412 1780.88 896.11 1778.18C902.374 1775.66 950.407 1775.94 954.484 1778.52ZM1183.87 1829.99C1185.81 1894.27 1183.28 1890.24 1221.72 1890.24C1261.52 1890.24 1259.61 1893.19 1260.67 1829.77L1261.56 1777.67L1284.83 1776.74C1319.9 1775.31 1317.05 1762.47 1317.05 1921.95C1317.05 2081.42 1319.9 2068.58 1284.83 2067.15L1261.56 2066.22L1259.8 2002.81C1258.83 1967.93 1257.76 1939.04 1257.43 1938.59C1254.95 1935.45 1190.2 1938.4 1188.02 1941.76C1186.61 1943.95 1184.74 1972.84 1183.87 2005.97L1182.27 2066.22L1160.6 2067.17C1127.39 2068.61 1129.95 2080.83 1129.95 1922.19C1129.95 1763.64 1127.53 1775.42 1160.04 1776.75L1182.27 1777.67L1183.87 1829.99ZM1488.2 1780.76C1490.34 1783.33 1498.96 1811.51 1507.36 1843.39C1515.76 1875.25 1525.6 1912.4 1529.22 1925.92C1537.15 1955.38 1545.22 1985.61 1556.43 2027.78C1567.05 2067.73 1567 2067.81 1538.32 2067.76C1508.99 2067.69 1509.09 2067.78 1502.57 2038.37C1495.11 2004.67 1494.71 2004.39 1453.55 2004.39C1412.72 2004.39 1411.21 2005.67 1404.39 2046.3C1401.37 2064.26 1395.92 2067.81 1371.52 2067.76C1339.19 2067.69 1339.82 2071.21 1359.27 1999.37C1368.68 1964.63 1385.37 1901.97 1396.37 1860.12C1407.74 1816.86 1418.46 1782.31 1421.22 1780.05C1428.51 1774.08 1483.15 1774.65 1488.2 1780.76ZM1627.28 1780.22C1629.17 1782.52 1634.35 1802.85 1638.77 1825.41C1643.2 1847.99 1651.82 1892.03 1657.93 1923.26C1674.69 2009.13 1672.49 2011.99 1702.33 1865.18C1721.46 1771.06 1718.85 1775.75 1751.46 1776.86C1780.61 1777.85 1780 1770.73 1758.68 1861.7C1749.9 1899.2 1735.93 1959.13 1727.67 1994.88C1709.4 2073.9 1713.89 2067.81 1673.77 2067.81C1634.97 2067.81 1636.55 2069.11 1627.8 2029.62C1624.14 2013.13 1618.47 1988.22 1615.17 1974.26C1611.87 1960.31 1603.3 1923.21 1596.12 1891.82C1588.93 1860.43 1580.12 1822.79 1576.54 1808.18C1571.16 1786.18 1570.78 1781.16 1574.34 1778.91C1581.38 1774.45 1623.36 1775.5 1627.28 1780.22ZM1867.9 1778.65C1870.01 1779.98 1878.81 1801.01 1887.43 1825.36C1948.55 1998.02 1945.65 1995.63 1945.1 1873.08C1944.65 1771.36 1943.38 1775.49 1974.39 1776.74L1997.21 1777.67V1921.95V2066.22L1966.77 2067.12C1928.06 2068.26 1937.17 2082.77 1887.4 1940.96C1858.47 1858.61 1857.87 1859.21 1856.84 1970.93C1856.22 2039.53 1855 2063.37 1852.09 2065.23C1847.45 2068.18 1817.57 2068.65 1810.37 2065.89C1803.66 2063.3 1802.61 1780.88 1809.33 1778.18C1815.75 1775.59 1863.68 1775.96 1867.9 1778.65ZM2517.23 1799.87V1822.06L2466.49 1823.64L2415.75 1825.24V1858.52V1891.82L2461.51 1892.71C2514.37 1893.73 2515.64 1894.3 2515.64 1917.19C2515.64 1940.08 2514.37 1940.65 2461.51 1941.68L2415.75 1942.56V1982.19V2021.83L2463.32 2022.59C2528.08 2023.65 2525.15 2022.56 2525.15 2045.62C2525.15 2069.48 2530.25 2068.25 2436.37 2067.12L2361.86 2066.22L2361.02 1923.73C2360.38 1811.88 2361.06 1780.71 2364.2 1778.68C2366.4 1777.27 2401.73 1776.46 2442.7 1776.89L2517.23 1777.67V1799.87ZM2706.69 1786.63C2751.29 1808.53 2757.64 1886.89 2716.96 1913.25C2703.22 1922.14 2703.13 1921.48 2719.81 1935.41C2736.43 1949.29 2739.43 1959.76 2742.21 2013.05C2743.22 2032.62 2745.37 2052.09 2746.96 2056.31C2751.03 2067 2749.26 2067.81 2721.61 2067.81C2688.87 2067.81 2688.87 2067.81 2686.72 2014.23C2684.22 1952.04 2677.47 1942.82 2635.87 1944.76L2615.52 1945.74L2614.67 2005.13C2613.66 2073.61 2616.35 2068.94 2578.96 2067.19L2558.45 2066.22L2557.63 1923.73C2556.97 1811.93 2557.66 1780.68 2560.79 1778.56C2572.07 1770.96 2687.81 1777.34 2706.69 1786.63ZM2844.7 1829.77C2845.75 1892.84 2844.16 1890.24 2881.64 1890.24C2920.02 1890.24 2918.34 1892.93 2918.34 1831.28C2918.34 1772.85 2916.67 1776.08 2946.89 1776.08C2978.33 1776.08 2975.41 1761.43 2975.41 1920.07C2975.41 2079.11 2977.58 2067.83 2947.04 2067.76C2917 2067.69 2918.6 2071.34 2917.63 2001.07L2916.76 1939.38L2882.66 1938.48C2863.92 1938 2848.3 1938 2847.96 1938.48C2847.61 1938.99 2846.55 1967.93 2845.58 2002.81L2843.83 2066.22L2820.12 2067.17C2785.87 2068.54 2788.33 2079.96 2788.33 1920.38C2788.33 1763.27 2785.64 1775.44 2820 1776.75L2843.83 1777.67L2844.7 1829.77ZM3061 1783.23C3062.65 1787.15 3070.52 1824.6 3078.49 1866.45C3098.76 1972.96 3098.91 1973.73 3102.21 1979C3108.84 1989.6 3113.21 1972.3 3146.04 1806.2C3148.8 1792.25 3152.55 1779.79 3154.39 1778.51C3161.45 1773.6 3203.79 1775.76 3205.86 1781.13C3208.58 1788.24 3144.84 2061.81 3139.71 2065.07C3134.42 2068.44 3076.61 2068.54 3071.36 2065.21C3068.15 2063.16 3046.96 1979.94 3032.45 1912.44C3030.77 1904.59 3026.52 1886.04 3023.01 1871.21C3007.62 1806.29 3003.44 1785.19 3005.12 1780.78C3008.45 1772.1 3057.21 1774.22 3061 1783.23ZM3396.49 1798.98C3397.64 1824.79 3400.81 1823.38 3338.48 1824.46L3294.1 1825.24V1858.52V1891.82L3335.31 1892.6C3393.49 1893.69 3390.8 1892.5 3390.8 1917.19C3390.8 1941.88 3393.49 1940.69 3335.31 1941.78L3294.1 1942.56L3293.18 1975.86C3291.74 2027.54 3286.77 2023.11 3347.25 2024.14L3398.73 2025V2045.62V2066.22H3317.87H3237.02L3236.19 1925.12C3235.74 1847.5 3236.05 1782.2 3236.9 1780C3238.1 1776.86 3255.88 1776.16 3317 1776.82L3395.56 1777.67L3396.49 1798.98ZM3585.86 1787.18C3632.2 1810.9 3634.55 1892.64 3589.65 1917.61C3582.32 1921.67 3585.08 1928.49 3596.74 1935.15C3612.08 1943.91 3616.02 1956.08 3619.48 2005.39C3621.19 2030.14 3622.89 2053.93 3623.24 2058.3C3623.85 2066.04 3623.31 2066.23 3600.09 2067.03C3566.34 2068.19 3567.35 2069.65 3564.9 2015.7C3562.04 1952.52 3555.46 1943.05 3515.58 1944.78L3493.86 1945.74L3492.28 2005.97L3490.68 2066.22L3467.41 2067.15C3452.98 2067.74 3442.43 2066.69 3439.67 2064.39C3433.44 2059.22 3432.95 1780.78 3439.16 1778.04C3441.35 1777.08 3471.06 1776.6 3505.19 1776.98L3567.26 1777.67L3585.86 1787.18ZM3707.8 1783.23C3709.41 1787.15 3714.38 1809.62 3718.82 1833.17C3754.29 2020.89 3750.04 2017.46 3777.65 1880.75C3800.38 1768.2 3796.8 1775.56 3828.09 1776.75L3852.18 1777.67L3851.62 1790.36C3851.31 1797.33 3847.32 1818.73 3842.74 1837.92C3835.26 1869.23 3831.89 1883.7 3822.03 1926.7C3820.44 1933.68 3815.56 1954.38 3811.19 1972.68C3806.82 1990.99 3800.45 2018.67 3797.03 2034.18C3789.57 2068.07 3790.05 2067.71 3752.29 2067.71C3714.71 2067.71 3715.02 2067.93 3707.64 2035.76C3704.3 2021.12 3697.27 1990.59 3692.04 1967.93C3681.77 1923.4 3667.96 1863.47 3656.07 1811.86C3647.52 1774.64 3646.11 1776.68 3680.21 1776.34C3702.91 1776.11 3705.09 1776.65 3707.8 1783.23ZM4223.89 1778.66C4229.06 1781.94 4302.36 2056.13 4299.84 2062.71C4297.32 2069.27 4252.85 2070.16 4247.54 2063.75C4245.68 2061.53 4241.81 2049.05 4238.91 2036.02C4232.15 2005.5 4230.5 2004.39 4192.22 2004.39C4151.65 2004.39 4150.52 2005.1 4143.87 2035.24C4136.74 2067.6 4136.52 2067.81 4108.53 2067.81C4078.3 2067.81 4078.45 2068.35 4093.19 2012.91C4099.75 1988.16 4108.35 1955.8 4112.29 1940.96C4116.23 1926.14 4123.15 1900.12 4127.7 1883.11C4132.25 1866.1 4139.57 1838.62 4143.99 1822.01C4157.37 1771.7 4153.09 1776.08 4188.99 1776.13C4206.05 1776.16 4221.75 1777.29 4223.89 1778.66ZM4382.42 1778.65C4385.16 1780.4 4386.55 1796.36 4387.18 1833.03C4387.7 1864.18 4389.33 1885.38 4391.24 1886.02C4392.99 1886.6 4409.93 1862.91 4428.86 1833.36C4467.4 1773.27 4464.1 1776.08 4495.92 1776.08C4527.23 1776.08 4527.56 1773.98 4486.33 1838.3C4464.29 1872.68 4450.03 1898.12 4450.08 1902.93C4450.24 1915.92 4524.18 2050.37 4531.17 2050.37C4536.13 2050.37 4540.05 2039.04 4556.94 1975.86C4579.08 1892.95 4596.15 1828.52 4603.51 1800.06C4609.6 1776.55 4610.23 1776.18 4644.9 1776.18C4683 1776.18 4678.28 1768.13 4710.16 1887.41C4725.71 1945.65 4742.7 2008.81 4747.89 2027.8C4759.23 2069.27 4759.93 2067.81 4729.13 2067.81C4699.91 2067.81 4699.52 2067.48 4693.73 2037.76C4687.57 2006.12 4685.07 2004.39 4645.5 2004.39C4605.58 2004.39 4603.88 2005.5 4597.79 2035.47C4590.91 2069.39 4594.21 2067.81 4530.58 2067.81C4464.93 2067.81 4473.24 2073.24 4441.49 2009.54C4409.54 1945.46 4410.98 1946.88 4396.93 1965.28C4388.41 1976.45 4387.99 1978.69 4386.46 2021.57L4384.89 2066.22L4364.37 2067.19C4353.08 2067.71 4340.6 2067.33 4336.63 2066.34L4329.39 2064.52V1922.15C4329.39 1811.22 4330.26 1779.43 4333.35 1778.18C4339.77 1775.59 4378.19 1775.96 4382.42 1778.65ZM4905.29 1779.55C4962.1 1789.46 4984.14 1839.24 4977.9 1943.64C4971.68 2047.77 4948.93 2068.8 4844.37 2067.1L4790.75 2066.22L4789.93 1925.12C4789.46 1847.5 4789.78 1782.22 4790.63 1780.05C4792.59 1774.93 4876.66 1774.57 4905.29 1779.55ZM5181.72 1779.89C5186.39 1784.56 5186.74 1809.13 5182.24 1817.52C5179.22 1823.17 5175.16 1823.64 5129.99 1823.64C5072.8 1823.64 5076.82 1820.43 5078.37 1864.87L5079.3 1891.82L5125.06 1892.71C5176.84 1893.71 5179.19 1894.65 5179.19 1914.62C5179.19 1940.79 5178.84 1940.96 5127.09 1940.96C5073.68 1940.96 5077.69 1937.53 5077.76 1983.25C5077.83 2026.06 5073.68 2023.09 5134.94 2024.12L5187.12 2025V2045.62V2066.22H5106.25H5025.39L5024.57 1925.12C5024.12 1847.5 5024.44 1782.22 5025.27 1780.05C5027.4 1774.48 5176.15 1774.32 5181.72 1779.89ZM5305.39 1778.8C5307.72 1780.28 5315.09 1808.49 5322.17 1842.97C5337.17 1915.94 5347.25 1966.28 5347.25 1968.16C5347.25 1970.64 5356.36 1969.56 5358.01 1966.89C5359.59 1964.34 5371.12 1909.87 5388.22 1824.25C5398.21 1774.17 5395.99 1776.2 5440.94 1776.13C5488.13 1776.06 5483.59 1760.51 5483.59 1922.19C5483.59 2080.2 5485.91 2068.66 5454.54 2067.17L5434.44 2066.22L5432.87 1962.64C5431.98 1905.67 5430.31 1858.09 5429.13 1856.91C5426.25 1854.04 5418.39 1870.09 5415.89 1883.89C5414.78 1890 5412.58 1900.71 5411 1907.68C5409.42 1914.66 5405.12 1933.92 5401.44 1950.49C5373.36 2076.91 5377.29 2067.69 5351.6 2067.76C5331.91 2067.81 5330.66 2066.39 5324.05 2036.09C5293.07 1894.2 5281.97 1850.99 5277.23 1853.92C5275.55 1854.96 5274.31 1899.94 5274.31 1959.84C5274.31 2076.85 5276.43 2067.81 5248.94 2067.81C5221.2 2067.81 5223.58 2081.5 5223.58 1921.88C5223.58 1811.16 5224.46 1779.43 5227.55 1778.18C5234.23 1775.49 5301 1776.01 5305.39 1778.8ZM5583.21 1778C5590.86 1780.94 5590.86 2062.95 5583.21 2065.89C5574.26 2069.32 5538.89 2067.93 5534.95 2064C5529.49 2058.53 5529.49 1785.36 5534.95 1779.89C5538.89 1775.96 5574.26 1774.57 5583.21 1778ZM304.748 1815.76C290.12 1823.99 284.411 1840.18 280.055 1885.63C274.884 1939.84 279.517 1984.4 289.252 1974.25C294.232 1969.06 349.917 1837.28 349.917 1830.7C349.917 1815.68 321.597 1806.31 304.748 1815.76ZM336.538 1822.24C340.408 1824.96 343.583 1828.88 343.583 1830.96C343.601 1836.99 291.525 1956.79 288.888 1956.81C284.116 1956.84 286.267 1863.67 291.421 1846.27C298.744 1821.66 319.741 1810.47 336.538 1822.24ZM521.83 1819.98C515.115 1824.25 517.891 1893.26 524.971 1897.72C534.463 1903.69 565.593 1895.24 575.849 1883.91C604.602 1852.17 558.01 1797.04 521.83 1819.98ZM2617.74 1821.11C2612.5 1826.37 2612.5 1897.04 2617.74 1902.28C2623.07 1907.61 2653.64 1907.04 2664.56 1901.4C2694.39 1885.97 2695.74 1836.27 2666.71 1822.5C2653.99 1816.46 2623.28 1815.59 2617.74 1821.11ZM3496.13 1819.98C3493.1 1821.91 3492.3 1832.89 3492.97 1863.54L3493.86 1904.51L3514.47 1905.36C3555.13 1907.04 3577.43 1874.14 3560.2 1837.85C3552.22 1821 3512.13 1809.83 3496.13 1819.98ZM4847.04 1819.41C4840.55 1822.03 4841.36 2021.24 4847.89 2026.63C4862.73 2038.94 4903.9 2023.44 4913.88 2001.79C4925 1977.67 4924.26 1867.13 4912.84 1844.26C4901.61 1821.84 4870.31 1810.02 4847.04 1819.41ZM562.435 1828.43C594.173 1844.85 579.424 1890.24 542.341 1890.24C521.709 1890.24 521.153 1889.37 521.153 1856.94C521.153 1822.25 533.716 1813.58 562.435 1828.43ZM2664.44 1828.27C2675.35 1833.93 2684.65 1855.02 2681.7 1867.39C2675.78 1892.06 2661.87 1901.45 2634.55 1899.21L2621.87 1898.17L2620.95 1865.08C2620.45 1846.89 2620.76 1830.13 2621.64 1827.82C2623.86 1822.08 2653.03 1822.37 2664.44 1828.27ZM3542.72 1828.26C3576.23 1845.59 3559.85 1895.71 3519.61 1898.94L3498.61 1900.62V1862.13V1823.64H3516.21C3525.89 1823.64 3537.81 1825.72 3542.72 1828.26ZM4890.63 1829.19C4911.45 1839.61 4914.42 1851.16 4914.42 1921.95C4914.42 2011.92 4907.91 2023.34 4858.13 2020.7L4849.42 2020.25V1921.95V1823.64L4864.48 1823.66C4872.76 1823.66 4884.54 1826.16 4890.63 1829.19ZM1450.63 1841.9C1448.81 1845.32 1443.6 1865.1 1439.09 1885.83C1434.58 1906.57 1429.27 1930.22 1427.31 1938.4C1422.33 1959.25 1426.22 1963.18 1451.93 1963.18C1487.45 1963.18 1487.02 1964.81 1470.64 1891.56C1458.75 1838.44 1456.06 1831.75 1450.63 1841.9ZM4182.59 1857.74C4178.54 1875.13 4169.87 1915.33 4163.07 1948.17C4160.95 1958.35 4169.94 1963.18 4191.07 1963.18C4223.71 1963.18 4223.45 1963.96 4210.46 1902.93C4194.44 1827.68 4190.9 1821.94 4182.59 1857.74ZM4641.98 1839.09C4640.07 1842.17 4630.55 1882.4 4623 1919.17C4620.27 1932.46 4617.24 1945.48 4616.23 1948.08C4612.67 1957.36 4623.55 1963.18 4644.52 1963.18C4675.51 1963.18 4676.72 1961.27 4669.07 1924.67C4652.45 1845.07 4647.66 1829.91 4641.98 1839.09ZM4200.91 1890.74C4212.92 1943.98 4213.74 1952.73 4206.83 1954.71C4199.75 1956.75 4176.18 1955.37 4171.81 1952.68C4169.19 1951.05 4177.47 1905.58 4188.31 1862.11C4191.11 1850.9 4192.83 1854.81 4200.91 1890.74ZM1459.22 1872C1479.89 1952.07 1479.39 1957.1 1451.07 1955.52C1428.91 1954.29 1429.57 1957.73 1441.37 1904.94C1452.66 1854.41 1454.03 1851.89 1459.22 1872ZM4656.06 1895C4664.77 1935.46 4667.06 1953.56 4663.53 1953.98C4619.89 1959.17 4620.27 1959.76 4632.33 1905.72C4645.44 1847.05 4645.73 1846.91 4656.06 1895ZM353.769 1875.18C350.507 1879.1 311.359 1967.96 298.379 2000.87L291.629 2017.94L300.34 2025.44C313.32 2036.6 334.733 2035.92 346.689 2023.96C360.051 2010.6 363.296 1995.43 364.944 1938.53C366.749 1876.19 364.32 1862.42 353.769 1875.18ZM359.322 1929.08C359.096 2000.99 349.553 2026.58 322.916 2026.58C295.898 2026.58 295.742 2021.78 320.921 1964.34C333.033 1936.66 345.162 1908.67 347.869 1902.13C356.58 1881.01 359.444 1887.73 359.322 1929.08ZM521.951 1936.54C515.635 1939.38 516.399 2021.32 522.802 2026.63C528.945 2031.74 554.922 2028.93 570.695 2021.43C598.494 2008.24 598.893 1956.53 571.32 1942.27C561.151 1937.01 529.118 1933.29 521.951 1936.54ZM570.556 1948.77C591.536 1962.52 588.794 2007.91 566.478 2016.38C525.578 2031.89 513.171 2013.53 523.253 1952.47L525.283 1940.18L543.937 1941.87C554.21 1942.8 566.183 1945.91 570.556 1948.77Z"/>
</svg>
