<?xml version="1.0" standalone="no"?>
<!DOCTYPE svg PUBLIC "-//W3C//DTD SVG 20010904//EN"
 "http://www.w3.org/TR/2001/REC-SVG-20010904/DTD/svg10.dtd">
<svg version="1.0" xmlns="http://www.w3.org/2000/svg" viewBox="0 0 528 188"
 preserveAspectRatio="xMidYMid meet">
<metadata>
Created by potrace 1.15, written by Peter Selinger 2001-2017
</metadata>
<g transform="translate(0.000000,188.000000) scale(0.100000,-0.100000)" stroke="none">
<path d="M735 1863 c-280 -60 -527 -260 -650 -526 -62 -134 -79 -222 -79 -397
1 -127 5 -170 22 -235 99 -363 385 -627 751 -690 467 -82 920 201 1057 660 36
121 44 317 19 450 -69 371 -355 661 -728 740 -88 19 -300 18 -392 -2z m393
-93 c166 -40 308 -124 427 -252 85 -92 143 -191 186 -316 32 -93 33 -103 34
-252 0 -180 -12 -234 -80 -377 -110 -228 -299 -383 -552 -455 -108 -31 -303
-31 -416 0 -418 114 -693 532 -627 952 54 342 301 610 643 700 101 27 274 26
385 0z"/>
<path d="M390 945 l0 -345 45 0 45 0 2 280 3 280 196 -278 195 -277 60 -2 59
-3 195 277 195 278 3 -278 2 -277 45 0 45 0 0 345 0 345 -57 0 -58 -1 -190
-273 -190 -273 -3 273 -2 274 -45 0 -45 0 -2 -272 -3 -272 -190 272 -189 272
-58 0 -58 0 0 -345z"/>
<path d="M3300 1300 c-158 -33 -273 -165 -287 -328 -13 -152 68 -292 207 -360
48 -23 68 -26 150 -27 82 0 103 4 151 26 79 37 133 90 171 167 31 62 33 74 33
167 0 88 -3 106 -27 155 -72 147 -241 232 -398 200z m191 -116 c98 -49 155
-147 147 -256 -5 -73 -28 -128 -75 -174 -110 -111 -268 -110 -379 1 -98 97
-110 219 -35 337 73 114 219 154 342 92z"/>
<path d="M4841 1300 c-145 -30 -254 -145 -282 -295 -29 -158 57 -323 203 -391
55 -25 75 -29 153 -29 82 0 97 3 157 33 131 64 200 177 201 328 0 67 -5 91
-27 139 -35 77 -67 118 -121 155 -81 56 -192 79 -284 60z m175 -105 c40 -16
107 -77 133 -119 95 -153 -13 -374 -197 -402 -177 -27 -339 144 -302 319 35
169 212 266 366 202z"/>
<path d="M2170 945 l0 -345 45 0 45 0 0 278 1 277 117 -275 118 -275 33 0 34
0 113 265 113 265 1 -267 0 -268 50 0 50 0 0 345 0 346 -67 -3 -67 -3 -111
-257 c-60 -142 -112 -258 -115 -258 -3 0 -54 117 -115 260 l-110 260 -67 0
-68 0 0 -345z"/>
<path d="M3860 945 l0 -345 45 0 45 0 2 276 3 275 190 -275 190 -275 58 -1 57
0 0 345 0 345 -45 0 -45 0 -2 -274 -3 -274 -190 274 -190 274 -57 0 -58 0 0
-345z"/>
</g>
</svg>
