<?xml version="1.0" standalone="no"?>
<!DOCTYPE svg PUBLIC "-//W3C//DTD SVG 20010904//EN"
 "http://www.w3.org/TR/2001/REC-SVG-20010904/DTD/svg10.dtd">
<svg version="1.0" xmlns="http://www.w3.org/2000/svg"
 viewBox="0 0 1500 452"
 preserveAspectRatio="xMidYMid meet">
<metadata>
Created by potrace 1.15, written by Peter Selinger 2001-2017
</metadata>
<g transform="translate(0.000000,452.000000) scale(0.100000,-0.100000)" stroke="none">
<path d="M12698 4442 l-288 -77 0 -1722 0 -1723 295 0 295 0 0 166 0 166 45
-61 c89 -117 226 -217 372 -271 236 -86 553 -82 805 10 482 176 778 667 778
1290 0 794 -463 1328 -1155 1333 -144 1 -214 -12 -344 -64 -135 -54 -351 -190
-448 -282 l-33 -31 0 672 c0 634 -1 672 -17 671 -10 -1 -147 -35 -305 -77z
m1177 -1457 c180 -46 327 -168 408 -336 54 -112 74 -187 88 -332 20 -196 -13
-393 -94 -557 -32 -66 -59 -103 -122 -165 -130 -131 -270 -188 -460 -188 -446
0 -726 371 -684 906 16 200 83 365 200 491 97 103 221 170 363 196 68 12 226
4 301 -15z"/>
<path d="M8851 3564 c-368 -62 -711 -316 -895 -664 -159 -302 -204 -690 -121
-1053 114 -504 479 -871 985 -988 126 -30 382 -37 522 -15 263 42 468 140 646
310 91 88 162 177 215 276 35 63 87 190 87 211 0 7 -96 9 -300 7 l-300 -3 -16
-25 c-9 -14 -46 -53 -81 -87 -199 -195 -577 -227 -841 -71 -91 53 -201 170
-250 265 -44 84 -82 210 -82 270 l0 33 945 0 944 0 8 38 c16 73 6 360 -16 486
-53 298 -158 507 -350 696 -145 143 -286 224 -484 279 -176 50 -439 65 -616
35z m399 -530 c158 -37 300 -141 368 -271 34 -64 72 -195 72 -245 l0 -28 -625
0 c-539 0 -625 2 -625 15 0 42 27 130 62 205 73 152 216 272 383 321 79 23
274 25 365 3z"/>
<path d="M880 3559 c-231 -28 -446 -133 -597 -292 -156 -164 -235 -374 -220
-579 9 -108 23 -160 74 -268 39 -81 59 -108 132 -181 97 -97 199 -162 326
-208 45 -16 200 -55 346 -85 299 -64 363 -88 428 -163 23 -25 46 -64 52 -87
15 -55 6 -143 -19 -193 -92 -180 -424 -225 -655 -90 -89 52 -171 165 -198 271
-6 25 -14 46 -18 46 -3 0 -123 -31 -266 -69 l-260 -68 2 -29 c6 -74 76 -231
143 -320 151 -200 365 -325 655 -380 131 -25 379 -24 505 3 193 42 335 113
462 232 120 113 193 231 234 382 25 89 25 289 0 379 -56 204 -211 382 -421
484 -129 62 -195 82 -483 141 -272 55 -328 75 -385 132 -53 52 -71 98 -72 173
0 179 174 303 404 287 208 -14 359 -126 412 -304 7 -24 14 -43 16 -43 15 0
509 133 515 138 11 11 -35 141 -80 227 -122 233 -362 398 -653 449 -113 20
-287 27 -379 15z"/>
<path d="M6280 3540 c-268 -34 -509 -165 -647 -355 l-22 -30 -1 168 0 167
-295 0 -295 0 0 -1745 c0 -960 3 -1745 8 -1744 4 0 140 35 302 78 l295 77 3
523 2 522 59 -46 c136 -104 323 -206 474 -257 81 -28 108 -32 230 -36 594 -19
1051 367 1187 1003 31 143 39 438 16 593 -74 504 -320 849 -720 1009 -157 62
-419 94 -596 73z m210 -565 c110 -30 200 -82 285 -169 128 -129 196 -288 214
-500 28 -323 -78 -619 -273 -766 -226 -170 -542 -181 -774 -26 -140 94 -238
241 -289 435 -22 82 -26 118 -26 251 -1 188 19 285 89 429 38 78 61 109 128
177 66 65 99 90 167 122 46 22 109 45 139 51 30 6 64 13 75 15 37 9 209 -3
265 -19z"/>
<path d="M11778 3505 c-236 -45 -439 -184 -536 -370 l-21 -40 -1 198 0 197
-300 0 -300 0 0 -1285 0 -1285 305 0 305 0 0 613 c0 643 6 784 41 907 62 226
200 367 420 427 50 14 103 18 246 18 l182 0 5 29 c3 16 6 154 6 307 0 202 -3
280 -12 285 -23 15 -261 14 -340 -1z"/>
<path d="M2310 2633 c0 -694 3 -876 14 -953 53 -351 245 -621 534 -752 127
-58 239 -80 407 -82 270 -2 476 69 633 218 l72 69 0 -107 0 -106 305 0 305 0
0 1285 0 1285 -305 0 -305 0 0 -807 c0 -671 -3 -820 -15 -877 -57 -268 -265
-419 -555 -403 -117 7 -200 34 -278 92 -99 72 -169 204 -192 361 -6 41 -10
385 -10 852 l0 782 -305 0 -305 0 0 -857z"/>
</g>
</svg>
