<svg version="1.0" xmlns="http://www.w3.org/2000/svg" viewBox="0 0 1024.000000 209.000000"
 preserveAspectRatio="xMidYMid meet">
<metadata>
Created by potrace 1.15, written by Peter Selinger 2001-2017
</metadata>
<g transform="translate(0.000000,209.000000) scale(0.100000,-0.100000)" stroke="none">
<path d="M3090 1060 l0 -1030 210 0 210 0 0 1030 0 1030 -210 0 -210 0 0
-1030z"/>
<path d="M7790 1060 l0 -1030 210 0 209 0 3 487 3 488 29 63 c59 127 168 191
307 179 79 -7 138 -34 169 -77 48 -68 50 -90 50 -632 l0 -508 210 0 210 0 0
583 c0 534 -2 588 -18 648 -24 87 -58 143 -124 206 -127 120 -334 170 -530
129 -99 -21 -175 -62 -245 -131 l-63 -61 0 343 0 343 -210 0 -210 0 0 -1030z"/>
<path d="M3860 1775 l0 -205 -105 0 -106 0 3 -152 3 -153 102 -3 102 -3 3
-528 3 -528 30 -48 c38 -61 94 -100 170 -120 73 -19 282 -30 388 -21 l77 8 0
158 0 157 -95 -1 c-81 0 -98 2 -122 20 l-28 21 -3 441 -2 441 122 3 123 3 3
153 3 152 -126 0 -125 0 0 205 0 205 -210 0 -210 0 0 -205z"/>
<path d="M2035 1596 c-103 -17 -146 -31 -221 -72 -138 -76 -231 -229 -258
-421 l-6 -43 204 0 205 0 15 54 c33 112 116 161 262 154 112 -6 170 -35 203
-102 23 -46 24 -51 10 -89 -22 -63 -56 -75 -322 -114 -316 -46 -386 -70 -488
-172 -96 -97 -129 -184 -129 -348 0 -203 76 -331 247 -411 54 -25 68 -27 218
-30 143 -3 168 -1 225 18 81 27 133 57 208 120 l59 48 17 -79 17 -79 229 0
230 0 0 35 c0 28 -7 42 -34 65 -22 20 -37 45 -45 74 -7 30 -11 203 -11 518 0
512 -5 569 -54 652 -53 91 -177 172 -316 206 -108 27 -347 35 -465 16z m423
-971 c-5 -115 -23 -160 -89 -226 -71 -71 -207 -116 -301 -99 -109 20 -166 133
-123 245 30 81 86 109 297 149 69 14 146 33 170 44 53 23 52 25 46 -113z"/>
<path d="M5209 1594 c-289 -52 -481 -251 -544 -562 -24 -119 -16 -401 14 -522
61 -238 208 -404 423 -477 81 -27 89 -28 298 -28 213 0 216 0 290 29 187 72
320 205 388 389 12 32 22 62 22 67 0 6 -84 10 -215 10 l-215 0 -14 -33 c-18
-44 -87 -102 -144 -121 -25 -9 -71 -16 -101 -16 -189 1 -306 107 -335 303 l-7
47 527 0 527 0 -6 138 c-24 520 -283 795 -747 791 -47 0 -119 -7 -161 -15z
m255 -348 c95 -29 166 -100 199 -200 32 -94 57 -86 -283 -86 l-299 0 6 33 c12
63 44 134 78 174 68 80 189 112 299 79z"/>
<path d="M6766 1594 c-342 -62 -535 -322 -561 -757 -15 -247 38 -455 158 -612
75 -99 196 -176 328 -209 89 -22 370 -22 454 -1 238 62 412 245 472 495 25
105 36 100 -202 100 -156 0 -206 -3 -209 -12 -2 -7 -9 -32 -15 -55 -30 -111
-127 -194 -235 -201 -161 -10 -261 77 -301 263 -19 91 -19 291 0 373 39 165
132 259 270 269 130 11 219 -48 261 -172 l23 -70 210 -3 211 -2 0 41 c0 109
-79 289 -163 374 -160 159 -430 228 -701 179z"/>
<path d="M0 1546 c0 -13 19 -75 41 -138 82 -223 272 -747 363 -1003 52 -143
104 -286 116 -318 l23 -57 220 2 221 3 108 300 c166 458 279 769 362 997 42
114 76 214 76 222 0 14 -27 16 -222 16 l-223 0 -68 -238 c-142 -497 -243 -841
-248 -846 -3 -3 -48 146 -99 332 -51 185 -106 378 -121 427 -15 50 -42 143
-60 208 l-31 117 -229 0 -229 0 0 -24z"/>
<path d="M9420 180 l0 -150 410 0 410 0 0 150 0 150 -410 0 -410 0 0 -150z"/>
</g>
</svg>